<svg id="svg" version="1.1" xmlns="http://www.w3.org/2000/svg" xmlns:xlink="http://www.w3.org/1999/xlink" width="400" height="400" viewBox="0, 0, 400,400"><g id="svgg"><path id="path0" d="M244.933 103.500 C 243.223 104.685,229.376 115.841,219.000 124.393 C 215.480 127.295,210.792 131.133,208.582 132.923 C 204.925 135.887,204.580 136.282,204.735 137.337 C 204.828 137.974,204.684 139.419,204.414 140.548 C 204.145 141.677,203.986 143.125,204.062 143.767 L 204.200 144.934 208.200 141.711 C 213.232 137.658,226.269 127.111,233.043 121.615 C 235.879 119.314,239.327 116.479,240.705 115.315 C 244.598 112.029,244.311 111.182,244.822 127.449 C 245.042 134.462,245.397 145.240,245.611 151.400 C 246.272 170.435,246.756 184.874,247.173 198.000 C 247.763 216.540,247.814 216.800,250.880 216.800 C 252.024 216.800,252.713 216.524,253.479 215.757 L 254.522 214.714 254.245 208.057 C 254.093 204.396,253.799 196.360,253.592 190.200 C 253.384 184.040,253.028 173.600,252.800 167.000 C 252.039 144.967,251.629 132.705,251.221 119.800 C 250.749 104.881,250.679 104.278,249.311 103.202 C 247.933 102.117,246.819 102.193,244.933 103.500 M214.630 141.793 C 208.930 144.137,205.520 149.962,206.377 155.894 C 207.999 167.120,221.180 171.635,229.132 163.688 C 239.276 153.550,227.881 136.346,214.630 141.793 M223.576 148.716 C 228.907 152.662,226.321 160.816,219.746 160.793 C 213.482 160.772,210.390 153.431,214.896 149.279 C 216.871 147.460,221.476 147.161,223.576 148.716 M179.500 182.282 C 179.995 182.378,180.805 182.378,181.300 182.282 C 181.795 182.187,181.390 182.109,180.400 182.109 C 179.410 182.109,179.005 182.187,179.500 182.282 M178.900 189.087 C 179.505 189.178,180.495 189.178,181.100 189.087 C 181.705 188.995,181.210 188.920,180.000 188.920 C 178.790 188.920,178.295 188.995,178.900 189.087 M221.200 189.350 C 211.003 192.299,207.550 204.250,214.734 211.725 C 225.252 222.669,242.637 210.607,236.463 196.649 C 233.983 191.043,226.961 187.685,221.200 189.350 M228.031 196.910 C 234.409 201.207,230.258 210.808,222.882 208.822 C 215.045 206.712,216.180 196.006,224.241 196.001 C 226.119 196.000,226.993 196.210,228.031 196.910 M194.138 212.957 C 194.104 213.861,193.912 215.535,193.713 216.678 C 193.513 217.820,193.477 218.676,193.632 218.580 C 193.923 218.400,195.418 218.963,199.112 220.641 C 200.273 221.168,201.310 221.600,201.416 221.600 C 201.522 221.600,202.372 221.951,203.304 222.381 C 206.894 224.034,213.232 226.251,218.200 227.592 C 219.740 228.007,222.350 228.720,224.000 229.175 C 225.650 229.630,228.440 230.282,230.200 230.624 C 231.960 230.966,234.155 231.415,235.077 231.623 C 236.000 231.830,237.620 232.003,238.677 232.006 C 250.607 232.044,257.079 242.963,249.179 249.725 C 245.675 252.724,233.672 252.839,220.200 250.002 C 219.320 249.817,217.520 249.451,216.200 249.190 C 214.880 248.928,213.350 248.565,212.800 248.383 C 212.250 248.201,209.910 247.485,207.600 246.792 C 202.067 245.134,199.623 244.281,194.951 242.380 C 190.332 240.501,190.223 240.490,190.118 241.900 C 190.073 242.505,189.886 244.125,189.703 245.500 C 189.412 247.691,189.452 248.000,190.030 248.000 C 190.393 248.000,192.020 248.550,193.645 249.221 C 212.235 256.904,238.341 261.032,247.871 257.797 C 260.187 253.615,263.109 238.992,253.415 230.056 C 250.291 227.177,247.607 226.294,238.600 225.183 C 235.166 224.759,232.664 224.305,226.745 223.032 C 219.812 221.540,208.080 217.514,199.800 213.785 C 198.480 213.190,196.680 212.391,195.800 212.009 L 194.200 211.314 194.138 212.957 M139.800 215.200 C 140.659 216.080,141.452 216.800,141.562 216.800 C 141.672 216.800,141.059 216.080,140.200 215.200 C 139.341 214.320,138.548 213.600,138.438 213.600 C 138.328 213.600,138.941 214.320,139.800 215.200 " stroke="none" fill="#faab2f" fill-rule="evenodd"></path><path id="path1" d="M188.400 33.593 C 188.070 33.810,186.146 33.991,184.124 33.994 C 182.102 33.997,180.336 34.180,180.200 34.400 C 180.064 34.620,178.804 34.800,177.400 34.800 C 175.996 34.800,174.736 34.980,174.600 35.200 C 174.464 35.420,173.384 35.600,172.200 35.600 C 171.016 35.600,169.936 35.780,169.800 36.000 C 169.664 36.220,168.753 36.400,167.776 36.400 C 166.799 36.400,166.000 36.580,166.000 36.800 C 166.000 37.020,165.201 37.200,164.224 37.200 C 163.247 37.200,162.336 37.380,162.200 37.600 C 162.064 37.820,161.434 38.000,160.800 38.000 C 160.166 38.000,159.536 38.180,159.400 38.400 C 159.264 38.620,158.533 38.800,157.776 38.800 C 157.019 38.800,156.400 38.980,156.400 39.200 C 156.400 39.420,155.680 39.600,154.800 39.600 C 153.920 39.600,153.200 39.780,153.200 40.000 C 153.200 40.220,152.660 40.400,152.000 40.400 C 151.340 40.400,150.800 40.580,150.800 40.800 C 150.800 41.020,150.260 41.200,149.600 41.200 C 148.940 41.200,148.400 41.380,148.400 41.600 C 148.400 41.820,147.860 42.000,147.200 42.000 C 146.540 42.000,146.000 42.180,146.000 42.400 C 146.000 42.620,145.561 42.800,145.024 42.800 C 144.487 42.800,143.936 42.980,143.800 43.200 C 143.664 43.420,143.203 43.600,142.776 43.600 C 142.349 43.600,142.000 43.780,142.000 44.000 C 142.000 44.220,141.460 44.400,140.800 44.400 C 140.140 44.400,139.600 44.580,139.600 44.800 C 139.600 45.020,139.240 45.200,138.800 45.200 C 138.360 45.200,138.000 45.380,138.000 45.600 C 138.000 45.820,137.561 46.000,137.024 46.000 C 136.487 46.000,135.936 46.180,135.800 46.400 C 135.664 46.620,135.203 46.800,134.776 46.800 C 134.349 46.800,134.000 46.980,134.000 47.200 C 134.000 47.420,133.640 47.600,133.200 47.600 C 132.760 47.600,132.400 47.780,132.400 48.000 C 132.400 48.220,132.040 48.400,131.600 48.400 C 131.160 48.400,130.800 48.580,130.800 48.800 C 130.800 49.020,130.440 49.200,130.000 49.200 C 129.560 49.200,129.200 49.380,129.200 49.600 C 129.200 49.820,128.840 50.000,128.400 50.000 C 127.960 50.000,127.600 50.180,127.600 50.400 C 127.600 50.620,127.240 50.800,126.800 50.800 C 126.360 50.800,126.000 50.980,126.000 51.200 C 126.000 51.420,125.640 51.600,125.200 51.600 C 124.760 51.600,124.400 51.780,124.400 52.000 C 124.400 52.220,124.040 52.400,123.600 52.400 C 123.160 52.400,122.800 52.580,122.800 52.800 C 122.800 53.020,122.564 53.200,122.275 53.200 C 121.987 53.200,121.364 53.560,120.892 54.000 C 120.420 54.440,119.756 54.800,119.417 54.800 C 119.078 54.800,118.800 54.980,118.800 55.200 C 118.800 55.420,118.480 55.600,118.088 55.600 C 117.697 55.600,117.117 55.960,116.800 56.400 C 116.483 56.840,115.903 57.200,115.512 57.200 C 115.120 57.200,114.800 57.380,114.800 57.600 C 114.800 57.820,114.564 58.000,114.275 58.000 C 113.987 58.000,113.402 58.315,112.975 58.700 C 112.549 59.085,111.705 59.655,111.100 59.968 C 110.495 60.280,110.000 60.685,110.000 60.868 C 110.000 61.050,109.757 61.200,109.459 61.200 C 109.162 61.200,108.354 61.740,107.663 62.400 C 106.972 63.060,106.208 63.600,105.964 63.600 C 105.720 63.600,105.017 64.140,104.400 64.800 C 103.783 65.460,103.081 66.000,102.840 66.000 C 102.598 66.000,101.659 66.720,100.752 67.600 C 99.845 68.480,98.934 69.200,98.726 69.200 C 98.518 69.200,97.471 70.100,96.400 71.200 C 95.329 72.300,94.260 73.200,94.026 73.200 C 93.509 73.200,81.200 85.512,81.200 86.029 C 81.200 86.230,80.120 87.492,78.800 88.832 C 77.480 90.173,76.400 91.452,76.400 91.674 C 76.400 91.897,75.860 92.583,75.200 93.200 C 74.540 93.817,74.000 94.537,74.000 94.800 C 74.000 95.063,73.460 95.783,72.800 96.400 C 72.140 97.017,71.600 97.737,71.600 98.000 C 71.600 98.263,71.060 98.983,70.400 99.600 C 69.740 100.217,69.200 100.969,69.200 101.272 C 69.200 101.575,68.840 102.083,68.400 102.400 C 67.960 102.717,67.600 103.257,67.600 103.600 C 67.600 103.943,67.240 104.483,66.800 104.800 C 66.360 105.117,66.000 105.614,66.000 105.905 C 66.000 106.196,65.640 106.820,65.200 107.292 C 64.760 107.764,64.400 108.387,64.400 108.675 C 64.400 108.964,64.220 109.200,64.000 109.200 C 63.780 109.200,63.600 109.478,63.600 109.817 C 63.600 110.156,63.240 110.820,62.800 111.292 C 62.360 111.764,62.000 112.387,62.000 112.675 C 62.000 112.964,61.820 113.200,61.600 113.200 C 61.380 113.200,61.200 113.560,61.200 114.000 C 61.200 114.440,61.020 114.800,60.800 114.800 C 60.580 114.800,60.400 115.160,60.400 115.600 C 60.400 116.040,60.220 116.400,60.000 116.400 C 59.780 116.400,59.600 116.760,59.600 117.200 C 59.600 117.640,59.420 118.000,59.200 118.000 C 58.980 118.000,58.800 118.345,58.800 118.767 C 58.800 119.188,58.665 119.593,58.500 119.667 C 58.068 119.859,56.400 123.172,56.400 123.838 C 56.400 124.147,56.220 124.400,56.000 124.400 C 55.780 124.400,55.600 124.760,55.600 125.200 C 55.600 125.640,55.420 126.000,55.200 126.000 C 54.980 126.000,54.800 126.360,54.800 126.800 C 54.800 127.240,54.620 127.600,54.400 127.600 C 54.180 127.600,54.000 127.960,54.000 128.400 C 54.000 128.840,53.820 129.200,53.600 129.200 C 53.380 129.200,53.200 129.740,53.200 130.400 C 53.200 131.060,53.020 131.600,52.800 131.600 C 52.580 131.600,52.400 131.960,52.400 132.400 C 52.400 132.840,52.220 133.200,52.000 133.200 C 51.780 133.200,51.600 133.740,51.600 134.400 C 51.600 135.060,51.420 135.600,51.200 135.600 C 50.980 135.600,50.800 135.949,50.800 136.376 C 50.800 136.803,50.620 137.264,50.400 137.400 C 50.180 137.536,50.000 138.087,50.000 138.624 C 50.000 139.161,49.820 139.600,49.600 139.600 C 49.380 139.600,49.200 140.129,49.200 140.776 C 49.200 141.423,49.020 142.064,48.800 142.200 C 48.580 142.336,48.400 142.876,48.400 143.400 C 48.400 143.924,48.220 144.464,48.000 144.600 C 47.780 144.736,47.600 145.467,47.600 146.224 C 47.600 146.981,47.420 147.600,47.200 147.600 C 46.980 147.600,46.800 148.129,46.800 148.776 C 46.800 149.423,46.620 150.064,46.400 150.200 C 46.180 150.336,46.000 151.067,46.000 151.824 C 46.000 152.581,45.820 153.200,45.600 153.200 C 45.380 153.200,45.200 153.909,45.200 154.776 C 45.200 155.643,45.020 156.464,44.800 156.600 C 44.580 156.736,44.400 157.456,44.400 158.200 C 44.400 158.944,44.220 159.664,44.000 159.800 C 43.780 159.936,43.600 160.836,43.600 161.800 C 43.600 162.764,43.420 163.664,43.200 163.800 C 42.980 163.936,42.800 165.196,42.800 166.600 C 42.800 168.004,42.620 169.264,42.400 169.400 C 42.180 169.536,42.000 170.861,42.000 172.344 C 42.000 173.827,41.805 175.235,41.567 175.473 C 40.966 176.074,40.970 208.730,41.572 209.332 C 41.807 209.567,42.000 210.973,42.000 212.456 C 42.000 213.939,42.180 215.264,42.400 215.400 C 42.620 215.536,42.800 216.796,42.800 218.200 C 42.800 219.604,42.980 220.864,43.200 221.000 C 43.420 221.136,43.600 221.946,43.600 222.800 C 43.600 223.654,43.780 224.464,44.000 224.600 C 44.220 224.736,44.400 225.546,44.400 226.400 C 44.400 227.254,44.580 228.064,44.800 228.200 C 45.020 228.336,45.200 229.157,45.200 230.024 C 45.200 230.891,45.380 231.600,45.600 231.600 C 45.820 231.600,46.000 232.219,46.000 232.976 C 46.000 233.733,46.180 234.464,46.400 234.600 C 46.620 234.736,46.800 235.366,46.800 236.000 C 46.800 236.634,46.980 237.264,47.200 237.400 C 47.420 237.536,47.600 238.166,47.600 238.800 C 47.600 239.434,47.780 240.064,48.000 240.200 C 48.220 240.336,48.400 240.876,48.400 241.400 C 48.400 241.924,48.580 242.464,48.800 242.600 C 49.020 242.736,49.200 243.276,49.200 243.800 C 49.200 244.324,49.380 244.864,49.600 245.000 C 49.820 245.136,50.000 245.676,50.000 246.200 C 50.000 246.724,50.180 247.264,50.400 247.400 C 50.620 247.536,50.800 247.997,50.800 248.424 C 50.800 248.851,50.980 249.200,51.200 249.200 C 51.420 249.200,51.600 249.639,51.600 250.176 C 51.600 250.713,51.780 251.264,52.000 251.400 C 52.220 251.536,52.400 251.997,52.400 252.424 C 52.400 252.851,52.580 253.200,52.800 253.200 C 53.020 253.200,53.200 253.639,53.200 254.176 C 53.200 254.713,53.380 255.264,53.600 255.400 C 53.820 255.536,54.000 255.997,54.000 256.424 C 54.000 256.851,54.180 257.200,54.400 257.200 C 54.620 257.200,54.800 257.560,54.800 258.000 C 54.800 258.440,54.980 258.800,55.200 258.800 C 55.420 258.800,55.600 259.160,55.600 259.600 C 55.600 260.040,55.780 260.400,56.000 260.400 C 56.220 260.400,56.400 260.645,56.400 260.944 C 56.400 261.601,58.876 266.545,59.300 266.733 C 59.465 266.807,59.600 267.212,59.600 267.633 C 59.600 268.055,59.780 268.400,60.000 268.400 C 60.220 268.400,60.400 268.760,60.400 269.200 C 60.400 269.640,60.580 270.000,60.800 270.000 C 61.020 270.000,61.200 270.360,61.200 270.800 C 61.200 271.240,61.380 271.600,61.600 271.600 C 61.820 271.600,62.000 271.836,62.000 272.125 C 62.000 272.413,62.360 273.036,62.800 273.508 C 63.240 273.980,63.600 274.644,63.600 274.983 C 63.600 275.322,63.780 275.600,64.000 275.600 C 64.220 275.600,64.400 275.836,64.400 276.125 C 64.400 276.413,64.715 276.998,65.100 277.425 C 65.485 277.851,66.055 278.695,66.368 279.300 C 66.680 279.905,67.085 280.400,67.268 280.400 C 67.450 280.400,67.600 280.720,67.600 281.112 C 67.600 281.503,67.960 282.083,68.400 282.400 C 68.840 282.717,69.200 283.180,69.200 283.429 C 69.200 283.678,69.740 284.446,70.400 285.137 C 71.060 285.828,71.600 286.592,71.600 286.836 C 71.600 287.080,72.140 287.783,72.800 288.400 C 73.460 289.017,74.000 289.733,74.000 289.992 C 74.000 290.251,74.720 291.154,75.600 292.000 C 76.480 292.846,77.200 293.741,77.200 293.991 C 77.200 294.240,78.280 295.504,79.600 296.800 C 80.920 298.096,82.000 299.334,82.000 299.552 C 82.000 300.055,92.721 310.800,93.223 310.800 C 93.427 310.800,94.692 311.880,96.032 313.200 C 97.373 314.520,98.634 315.600,98.834 315.600 C 99.035 315.600,99.941 316.320,100.848 317.200 C 101.755 318.080,102.656 318.800,102.852 318.800 C 103.047 318.800,103.772 319.340,104.463 320.000 C 105.154 320.660,105.922 321.200,106.171 321.200 C 106.420 321.200,106.883 321.560,107.200 322.000 C 107.517 322.440,108.057 322.800,108.400 322.800 C 108.743 322.800,109.283 323.160,109.600 323.600 C 109.917 324.040,110.457 324.400,110.800 324.400 C 111.143 324.400,111.683 324.760,112.000 325.200 C 112.317 325.640,112.814 326.000,113.105 326.000 C 113.396 326.000,114.020 326.360,114.492 326.800 C 114.964 327.240,115.587 327.600,115.875 327.600 C 116.164 327.600,116.400 327.780,116.400 328.000 C 116.400 328.220,116.678 328.400,117.017 328.400 C 117.356 328.400,118.020 328.760,118.492 329.200 C 118.964 329.640,119.587 330.000,119.875 330.000 C 120.164 330.000,120.400 330.180,120.400 330.400 C 120.400 330.620,120.760 330.800,121.200 330.800 C 121.640 330.800,122.000 330.980,122.000 331.200 C 122.000 331.420,122.360 331.600,122.800 331.600 C 123.240 331.600,123.600 331.780,123.600 332.000 C 123.600 332.220,123.960 332.400,124.400 332.400 C 124.840 332.400,125.201 332.535,125.203 332.700 C 125.207 333.051,127.137 334.000,127.846 334.000 C 128.114 334.000,128.393 334.135,128.467 334.300 C 128.659 334.732,131.972 336.400,132.638 336.400 C 132.947 336.400,133.200 336.580,133.200 336.800 C 133.200 337.020,133.560 337.200,134.000 337.200 C 134.440 337.200,134.800 337.380,134.800 337.600 C 134.800 337.820,135.160 338.000,135.600 338.000 C 136.040 338.000,136.400 338.180,136.400 338.400 C 136.400 338.620,136.749 338.800,137.176 338.800 C 137.603 338.800,138.064 338.980,138.200 339.200 C 138.336 339.420,138.887 339.600,139.424 339.600 C 139.961 339.600,140.400 339.780,140.400 340.000 C 140.400 340.220,140.940 340.400,141.600 340.400 C 142.260 340.400,142.800 340.580,142.800 340.800 C 142.800 341.020,143.160 341.200,143.600 341.200 C 144.040 341.200,144.400 341.380,144.400 341.600 C 144.400 341.820,144.940 342.000,145.600 342.000 C 146.260 342.000,146.800 342.180,146.800 342.400 C 146.800 342.620,147.340 342.800,148.000 342.800 C 148.660 342.800,149.200 342.980,149.200 343.200 C 149.200 343.420,149.740 343.600,150.400 343.600 C 151.060 343.600,151.600 343.780,151.600 344.000 C 151.600 344.220,152.140 344.400,152.800 344.400 C 153.460 344.400,154.000 344.580,154.000 344.800 C 154.000 345.020,154.720 345.200,155.600 345.200 C 156.480 345.200,157.200 345.380,157.200 345.600 C 157.200 345.820,157.729 346.000,158.376 346.000 C 159.023 346.000,159.664 346.180,159.800 346.400 C 159.936 346.620,160.847 346.800,161.824 346.800 C 162.801 346.800,163.600 346.980,163.600 347.200 C 163.600 347.420,164.129 347.600,164.776 347.600 C 165.423 347.600,166.064 347.780,166.200 348.000 C 166.336 348.220,167.247 348.400,168.224 348.400 C 169.201 348.400,170.000 348.580,170.000 348.800 C 170.000 349.020,170.799 349.200,171.776 349.200 C 172.753 349.200,173.664 349.380,173.800 349.600 C 173.936 349.820,175.261 350.000,176.744 350.000 C 178.227 350.000,179.611 350.166,179.820 350.369 C 181.066 351.578,218.531 351.578,219.780 350.368 C 219.989 350.166,221.373 350.000,222.856 350.000 C 224.339 350.000,225.664 349.820,225.800 349.600 C 225.936 349.380,226.836 349.200,227.800 349.200 C 228.764 349.200,229.664 349.020,229.800 348.800 C 229.936 348.580,230.746 348.400,231.600 348.400 C 232.454 348.400,233.264 348.220,233.400 348.000 C 233.536 347.780,234.267 347.600,235.024 347.600 C 235.781 347.600,236.400 347.420,236.400 347.200 C 236.400 346.980,237.120 346.800,238.000 346.800 C 238.880 346.800,239.600 346.620,239.600 346.400 C 239.600 346.180,240.219 346.000,240.976 346.000 C 241.733 346.000,242.464 345.820,242.600 345.600 C 242.736 345.380,243.456 345.200,244.200 345.200 C 244.944 345.200,245.664 345.020,245.800 344.800 C 245.936 344.580,246.577 344.400,247.224 344.400 C 247.871 344.400,248.400 344.220,248.400 344.000 C 248.400 343.780,248.940 343.600,249.600 343.600 C 250.260 343.600,250.800 343.420,250.800 343.200 C 250.800 342.980,251.340 342.800,252.000 342.800 C 252.660 342.800,253.200 342.620,253.200 342.400 C 253.200 342.180,253.549 342.000,253.976 342.000 C 254.403 342.000,254.864 341.820,255.000 341.600 C 255.136 341.380,255.687 341.200,256.224 341.200 C 256.761 341.200,257.200 341.020,257.200 340.800 C 257.200 340.580,257.740 340.400,258.400 340.400 C 259.060 340.400,259.600 340.220,259.600 340.000 C 259.600 339.780,259.960 339.600,260.400 339.600 C 260.840 339.600,261.200 339.420,261.200 339.200 C 261.200 338.980,261.549 338.800,261.976 338.800 C 262.403 338.800,262.864 338.620,263.000 338.400 C 263.136 338.180,263.687 338.000,264.224 338.000 C 264.761 338.000,265.200 337.820,265.200 337.600 C 265.200 337.380,265.560 337.200,266.000 337.200 C 266.440 337.200,266.800 337.020,266.800 336.800 C 266.800 336.580,267.160 336.400,267.600 336.400 C 268.040 336.400,268.400 336.220,268.400 336.000 C 268.400 335.780,268.760 335.600,269.200 335.600 C 269.640 335.600,270.000 335.420,270.000 335.200 C 270.000 334.980,270.360 334.800,270.800 334.800 C 271.240 334.800,271.600 334.620,271.600 334.400 C 271.600 334.180,271.960 334.000,272.400 334.000 C 272.840 334.000,273.200 333.820,273.200 333.600 C 273.200 333.380,273.560 333.200,274.000 333.200 C 274.440 333.200,274.800 333.020,274.800 332.800 C 274.800 332.580,275.160 332.400,275.600 332.400 C 276.040 332.400,276.400 332.220,276.400 332.000 C 276.400 331.780,276.760 331.600,277.200 331.600 C 277.640 331.600,278.000 331.420,278.000 331.200 C 278.000 330.980,278.236 330.800,278.525 330.800 C 278.813 330.800,279.436 330.440,279.908 330.000 C 280.380 329.560,281.044 329.200,281.383 329.200 C 281.722 329.200,282.000 329.020,282.000 328.800 C 282.000 328.580,282.320 328.400,282.712 328.400 C 283.103 328.400,283.683 328.040,284.000 327.600 C 284.317 327.160,284.857 326.800,285.200 326.800 C 285.543 326.800,286.083 326.440,286.400 326.000 C 286.717 325.560,287.297 325.200,287.688 325.200 C 288.080 325.200,288.400 325.020,288.400 324.800 C 288.400 324.580,288.643 324.400,288.941 324.400 C 289.238 324.400,290.046 323.860,290.737 323.200 C 291.428 322.540,292.264 322.000,292.596 322.000 C 292.928 322.000,293.200 321.850,293.200 321.668 C 293.200 321.485,293.695 321.080,294.300 320.768 C 294.905 320.455,295.877 319.705,296.460 319.100 C 297.044 318.495,297.737 318.000,298.000 318.000 C 298.263 318.000,298.983 317.460,299.600 316.800 C 300.217 316.140,300.906 315.600,301.133 315.600 C 301.360 315.600,302.999 314.160,304.776 312.400 C 306.552 310.640,308.140 309.198,308.303 309.195 C 308.774 309.187,314.110 303.930,315.416 302.188 C 316.067 301.319,317.995 299.219,319.700 297.521 C 321.405 295.823,322.800 294.247,322.800 294.018 C 322.800 293.788,323.520 292.859,324.400 291.952 C 325.280 291.045,326.000 290.127,326.000 289.912 C 326.000 289.697,326.540 289.017,327.200 288.400 C 327.860 287.783,328.400 287.031,328.400 286.728 C 328.400 286.425,328.760 285.917,329.200 285.600 C 329.640 285.283,330.000 284.775,330.000 284.472 C 330.000 284.169,330.540 283.417,331.200 282.800 C 331.860 282.183,332.400 281.474,332.400 281.223 C 332.400 280.972,332.760 280.380,333.200 279.908 C 333.640 279.436,334.000 278.813,334.000 278.525 C 334.000 278.236,334.180 278.000,334.400 278.000 C 334.620 278.000,334.800 277.680,334.800 277.288 C 334.800 276.897,335.160 276.317,335.600 276.000 C 336.040 275.683,336.400 275.118,336.400 274.745 C 336.400 274.372,336.535 274.007,336.700 273.933 C 337.076 273.766,338.375 271.636,338.671 270.700 C 338.793 270.315,339.052 270.000,339.247 270.000 C 339.441 270.000,339.600 269.640,339.600 269.200 C 339.600 268.760,339.780 268.400,340.000 268.400 C 340.220 268.400,340.400 268.040,340.400 267.600 C 340.400 267.160,340.580 266.800,340.800 266.800 C 341.020 266.800,341.200 266.440,341.200 266.000 C 341.200 265.560,341.380 265.200,341.600 265.200 C 341.820 265.200,342.000 264.840,342.000 264.400 C 342.000 263.960,342.180 263.600,342.400 263.600 C 342.620 263.600,342.800 263.240,342.800 262.800 C 342.800 262.360,342.980 262.000,343.200 262.000 C 343.420 262.000,343.600 261.640,343.600 261.200 C 343.600 260.760,343.780 260.400,344.000 260.400 C 344.220 260.400,344.400 260.040,344.400 259.600 C 344.400 259.160,344.580 258.800,344.800 258.800 C 345.020 258.800,345.200 258.440,345.200 258.000 C 345.200 257.560,345.380 257.200,345.600 257.200 C 345.820 257.200,346.000 256.660,346.000 256.000 C 346.000 255.340,346.180 254.800,346.400 254.800 C 346.620 254.800,346.800 254.440,346.800 254.000 C 346.800 253.560,346.980 253.200,347.200 253.200 C 347.420 253.200,347.600 252.851,347.600 252.424 C 347.600 251.997,347.780 251.536,348.000 251.400 C 348.220 251.264,348.400 250.713,348.400 250.176 C 348.400 249.639,348.580 249.200,348.800 249.200 C 349.020 249.200,349.200 248.660,349.200 248.000 C 349.200 247.340,349.380 246.800,349.600 246.800 C 349.820 246.800,350.000 246.451,350.000 246.024 C 350.000 245.597,350.180 245.136,350.400 245.000 C 350.620 244.864,350.800 244.324,350.800 243.800 C 350.800 243.276,350.980 242.736,351.200 242.600 C 351.420 242.464,351.600 241.733,351.600 240.976 C 351.600 240.219,351.780 239.600,352.000 239.600 C 352.220 239.600,352.400 239.060,352.400 238.400 C 352.400 237.740,352.580 237.200,352.800 237.200 C 353.020 237.200,353.200 236.581,353.200 235.824 C 353.200 235.067,353.380 234.336,353.600 234.200 C 353.820 234.064,354.000 233.423,354.000 232.776 C 354.000 232.129,354.180 231.600,354.400 231.600 C 354.620 231.600,354.800 230.801,354.800 229.824 C 354.800 228.847,354.980 227.936,355.200 227.800 C 355.420 227.664,355.600 226.843,355.600 225.976 C 355.600 225.109,355.780 224.400,356.000 224.400 C 356.220 224.400,356.400 223.421,356.400 222.224 C 356.400 221.027,356.580 219.936,356.800 219.800 C 357.020 219.664,357.200 218.674,357.200 217.600 C 357.200 216.526,357.380 215.536,357.600 215.400 C 357.820 215.264,358.000 213.644,358.000 211.800 C 358.000 209.956,358.180 208.336,358.400 208.200 C 358.948 207.862,358.948 176.938,358.400 176.600 C 358.180 176.464,358.000 174.844,358.000 173.000 C 358.000 171.156,357.820 169.536,357.600 169.400 C 357.380 169.264,357.200 168.184,357.200 167.000 C 357.200 165.816,357.020 164.736,356.800 164.600 C 356.580 164.464,356.400 163.463,356.400 162.376 C 356.400 161.289,356.220 160.400,356.000 160.400 C 355.780 160.400,355.600 159.601,355.600 158.624 C 355.600 157.647,355.420 156.736,355.200 156.600 C 354.980 156.464,354.800 155.643,354.800 154.776 C 354.800 153.909,354.620 153.200,354.400 153.200 C 354.180 153.200,354.000 152.581,354.000 151.824 C 354.000 151.067,353.820 150.336,353.600 150.200 C 353.380 150.064,353.200 149.423,353.200 148.776 C 353.200 148.129,353.020 147.600,352.800 147.600 C 352.580 147.600,352.400 147.071,352.400 146.424 C 352.400 145.777,352.220 145.136,352.000 145.000 C 351.780 144.864,351.600 144.234,351.600 143.600 C 351.600 142.966,351.420 142.336,351.200 142.200 C 350.980 142.064,350.800 141.524,350.800 141.000 C 350.800 140.476,350.620 139.936,350.400 139.800 C 350.180 139.664,350.000 139.203,350.000 138.776 C 350.000 138.349,349.820 138.000,349.600 138.000 C 349.380 138.000,349.200 137.460,349.200 136.800 C 349.200 136.140,349.020 135.600,348.800 135.600 C 348.580 135.600,348.400 135.161,348.400 134.624 C 348.400 134.087,348.220 133.536,348.000 133.400 C 347.780 133.264,347.600 132.803,347.600 132.376 C 347.600 131.949,347.420 131.600,347.200 131.600 C 346.980 131.600,346.800 131.161,346.800 130.624 C 346.800 130.087,346.620 129.536,346.400 129.400 C 346.180 129.264,346.000 128.803,346.000 128.376 C 346.000 127.949,345.820 127.600,345.600 127.600 C 345.380 127.600,345.200 127.240,345.200 126.800 C 345.200 126.360,345.020 126.000,344.800 126.000 C 344.580 126.000,344.400 125.640,344.400 125.200 C 344.400 124.760,344.220 124.400,344.000 124.400 C 343.780 124.400,343.600 124.040,343.600 123.600 C 343.600 123.160,343.420 122.800,343.200 122.800 C 342.980 122.800,342.800 122.440,342.800 122.000 C 342.800 121.560,342.620 121.200,342.400 121.200 C 342.180 121.200,342.000 120.840,342.000 120.400 C 342.000 119.960,341.820 119.600,341.600 119.600 C 341.380 119.600,341.200 119.240,341.200 118.800 C 341.200 118.360,341.020 118.000,340.800 118.000 C 340.580 118.000,340.400 117.640,340.400 117.200 C 340.400 116.760,340.220 116.400,340.000 116.400 C 339.780 116.400,339.600 116.040,339.600 115.600 C 339.600 115.160,339.420 114.800,339.200 114.800 C 338.980 114.800,338.800 114.440,338.800 114.000 C 338.800 113.560,338.620 113.200,338.400 113.200 C 338.180 113.200,338.000 112.964,338.000 112.675 C 338.000 112.387,337.640 111.764,337.200 111.292 C 336.760 110.820,336.400 110.196,336.400 109.905 C 336.400 109.614,336.040 109.117,335.600 108.800 C 335.160 108.483,334.800 107.903,334.800 107.512 C 334.800 107.120,334.620 106.800,334.400 106.800 C 334.180 106.800,334.000 106.564,334.000 106.275 C 334.000 105.987,333.685 105.402,333.300 104.975 C 332.915 104.549,332.345 103.705,332.032 103.100 C 331.720 102.495,331.315 102.000,331.132 102.000 C 330.950 102.000,330.800 101.757,330.800 101.459 C 330.800 101.162,330.260 100.354,329.600 99.663 C 328.940 98.972,328.400 98.208,328.400 97.964 C 328.400 97.720,327.860 97.017,327.200 96.400 C 326.540 95.783,326.000 95.081,326.000 94.840 C 326.000 94.598,325.280 93.659,324.400 92.752 C 323.520 91.845,322.800 90.935,322.800 90.730 C 322.800 90.524,321.720 89.296,320.400 88.000 C 319.080 86.704,318.000 85.470,318.000 85.258 C 318.000 84.729,307.304 74.000,306.777 74.000 C 306.545 74.000,305.296 72.920,304.000 71.600 C 302.704 70.280,301.455 69.200,301.223 69.200 C 300.991 69.200,300.059 68.480,299.152 67.600 C 298.245 66.720,297.327 66.000,297.112 66.000 C 296.897 66.000,296.217 65.460,295.600 64.800 C 294.983 64.140,294.231 63.600,293.928 63.600 C 293.625 63.600,293.117 63.240,292.800 62.800 C 292.483 62.360,291.991 62.000,291.708 62.000 C 291.425 62.000,290.628 61.460,289.937 60.800 C 289.246 60.140,288.438 59.600,288.141 59.600 C 287.843 59.600,287.600 59.420,287.600 59.200 C 287.600 58.980,287.280 58.800,286.888 58.800 C 286.497 58.800,285.917 58.440,285.600 58.000 C 285.283 57.560,284.786 57.200,284.495 57.200 C 284.204 57.200,283.580 56.840,283.108 56.400 C 282.636 55.960,282.013 55.600,281.725 55.600 C 281.436 55.600,281.200 55.420,281.200 55.200 C 281.200 54.980,280.840 54.800,280.400 54.800 C 279.960 54.800,279.600 54.620,279.600 54.400 C 279.600 54.180,279.364 54.000,279.075 54.000 C 278.787 54.000,278.164 53.640,277.692 53.200 C 277.220 52.760,276.556 52.400,276.217 52.400 C 275.878 52.400,275.600 52.220,275.600 52.000 C 275.600 51.780,275.240 51.600,274.800 51.600 C 274.360 51.600,274.000 51.420,274.000 51.200 C 274.000 50.980,273.640 50.800,273.200 50.800 C 272.760 50.800,272.400 50.620,272.400 50.400 C 272.400 50.180,272.040 50.000,271.600 50.000 C 271.160 50.000,270.800 49.820,270.800 49.600 C 270.800 49.380,270.440 49.200,270.000 49.200 C 269.560 49.200,269.200 49.020,269.200 48.800 C 269.200 48.580,268.840 48.400,268.400 48.400 C 267.960 48.400,267.600 48.220,267.600 48.000 C 267.600 47.780,267.328 47.600,266.995 47.600 C 266.662 47.600,266.032 47.420,265.595 47.200 C 265.158 46.980,264.442 46.620,264.005 46.400 C 263.568 46.180,262.938 46.000,262.605 46.000 C 262.272 46.000,262.000 45.820,262.000 45.600 C 262.000 45.380,261.640 45.200,261.200 45.200 C 260.760 45.200,260.400 45.020,260.400 44.800 C 260.400 44.580,259.860 44.400,259.200 44.400 C 258.540 44.400,258.000 44.220,258.000 44.000 C 258.000 43.780,257.651 43.600,257.224 43.600 C 256.797 43.600,256.336 43.420,256.200 43.200 C 256.064 42.980,255.513 42.800,254.976 42.800 C 254.439 42.800,254.000 42.620,254.000 42.400 C 254.000 42.180,253.460 42.000,252.800 42.000 C 252.140 42.000,251.600 41.820,251.600 41.600 C 251.600 41.380,251.060 41.200,250.400 41.200 C 249.740 41.200,249.200 41.020,249.200 40.800 C 249.200 40.580,248.671 40.400,248.024 40.400 C 247.377 40.400,246.736 40.220,246.600 40.000 C 246.464 39.780,245.733 39.600,244.976 39.600 C 244.219 39.600,243.600 39.420,243.600 39.200 C 243.600 38.980,242.981 38.800,242.224 38.800 C 241.467 38.800,240.736 38.620,240.600 38.400 C 240.464 38.180,239.834 38.000,239.200 38.000 C 238.566 38.000,237.936 37.820,237.800 37.600 C 237.664 37.380,236.854 37.200,236.000 37.200 C 235.146 37.200,234.336 37.020,234.200 36.800 C 234.064 36.580,233.063 36.400,231.976 36.400 C 230.889 36.400,230.000 36.220,230.000 36.000 C 230.000 35.780,229.021 35.600,227.824 35.600 C 226.627 35.600,225.536 35.420,225.400 35.200 C 225.264 34.980,223.939 34.800,222.456 34.800 C 220.973 34.800,219.589 34.632,219.380 34.427 C 218.553 33.617,189.552 32.836,188.400 33.593 M250.235 103.323 C 251.179 104.421,251.459 110.071,253.207 163.400 C 253.437 170.440,253.796 180.610,254.003 186.000 C 254.211 191.390,254.497 200.151,254.640 205.468 L 254.900 215.137 253.884 216.152 C 252.572 217.464,251.092 217.818,249.561 217.184 C 247.136 216.180,247.367 218.184,246.396 189.600 C 245.667 168.155,245.166 153.667,244.790 143.200 C 244.581 137.370,244.290 128.415,244.142 123.300 C 243.995 118.185,243.735 114.000,243.564 114.000 C 243.393 114.000,242.092 114.945,240.673 116.100 C 233.913 121.602,221.826 131.391,214.600 137.218 C 210.200 140.765,205.700 144.513,204.600 145.545 C 203.500 146.577,198.928 150.387,194.441 154.011 C 189.953 157.635,185.934 160.881,185.510 161.225 C 184.655 161.918,184.817 162.141,186.964 163.217 C 196.656 168.073,196.059 183.638,186.000 188.350 C 178.069 192.066,166.000 186.087,166.000 178.443 C 166.000 177.231,165.951 177.257,161.160 181.068 C 157.086 184.308,156.230 185.200,157.192 185.200 C 157.408 185.200,159.506 186.865,161.854 188.900 C 177.157 202.163,187.895 208.626,207.400 216.314 C 213.316 218.645,223.349 221.838,227.000 222.550 C 227.660 222.679,229.370 223.034,230.800 223.339 C 232.230 223.644,234.930 224.106,236.800 224.364 C 249.128 226.068,251.277 226.824,254.834 230.710 C 262.214 238.771,260.891 250.808,252.003 256.478 C 243.487 261.909,219.309 259.418,196.010 250.708 C 193.035 249.595,190.060 248.623,189.400 248.547 C 188.740 248.470,187.840 248.234,187.400 248.022 C 186.960 247.810,183.927 246.371,180.659 244.825 C 162.860 236.402,146.889 224.528,135.880 211.534 C 133.315 208.505,133.069 207.033,134.799 205.062 C 137.409 202.090,138.320 202.512,145.792 210.157 C 153.883 218.437,157.466 221.392,167.709 228.232 C 173.191 231.893,189.711 240.626,190.377 240.214 C 190.547 240.109,193.187 241.030,196.243 242.261 C 199.299 243.492,202.925 244.837,204.300 245.250 C 205.675 245.662,208.015 246.372,209.500 246.826 C 212.607 247.778,215.658 248.539,218.800 249.149 C 220.010 249.384,221.900 249.755,223.000 249.974 C 231.401 251.647,244.396 251.937,247.061 250.512 C 252.126 247.803,253.524 241.456,250.066 236.874 C 248.255 234.474,244.873 233.249,237.800 232.431 C 232.701 231.841,229.486 231.174,221.400 229.028 C 212.729 226.726,207.738 224.965,198.544 220.965 C 196.313 219.994,194.115 219.200,193.660 219.200 C 191.789 219.200,176.351 210.420,169.089 205.225 C 165.357 202.556,158.287 196.776,155.600 194.197 C 150.377 189.185,144.722 189.238,140.451 194.339 C 137.012 198.447,131.671 196.147,133.154 191.196 C 134.180 187.772,141.078 182.800,144.803 182.800 C 145.600 182.800,146.702 182.201,148.284 180.909 C 149.558 179.869,154.740 175.675,159.800 171.590 C 164.860 167.505,171.610 162.038,174.800 159.443 C 187.611 149.019,200.603 138.511,202.576 136.978 C 204.806 135.246,211.988 129.436,218.371 124.200 C 222.677 120.668,234.187 111.314,240.828 105.950 C 246.359 101.483,248.208 100.966,250.235 103.323 M222.847 140.569 C 237.779 145.101,236.818 165.520,221.554 168.031 C 210.309 169.880,201.017 155.732,207.655 146.869 C 211.732 141.425,217.621 138.983,222.847 140.569 M216.928 148.622 C 212.606 150.515,212.129 156.782,216.122 159.218 C 219.972 161.567,224.519 160.016,225.605 155.982 C 227.016 150.742,221.933 146.430,216.928 148.622 M124.718 172.292 L 124.600 174.984 121.600 176.482 C 119.950 177.306,110.410 182.015,100.400 186.947 C 83.373 195.336,82.271 195.942,83.301 196.348 C 83.907 196.586,85.167 197.126,86.101 197.547 C 87.036 197.969,90.410 199.432,93.600 200.799 C 96.790 202.166,100.350 203.716,101.512 204.242 C 102.673 204.769,103.703 205.200,103.800 205.200 C 103.897 205.200,104.927 205.629,106.088 206.154 C 107.250 206.678,109.550 207.689,111.200 208.400 C 112.850 209.111,115.150 210.122,116.312 210.646 C 117.473 211.171,118.508 211.600,118.610 211.600 C 118.713 211.600,120.147 212.224,121.798 212.987 L 124.800 214.373 124.800 216.987 C 124.800 220.086,124.325 220.279,120.712 218.645 C 116.427 216.707,112.362 214.909,108.400 213.200 C 106.750 212.488,104.635 211.567,103.700 211.153 C 100.005 209.517,98.417 208.818,93.800 206.800 C 88.352 204.419,87.754 204.155,80.600 200.984 C 79.940 200.691,78.175 199.907,76.677 199.241 L 73.955 198.030 74.077 196.115 L 74.200 194.200 98.600 181.921 C 126.156 168.054,124.884 168.523,124.718 172.292 M176.849 170.260 C 173.070 172.188,172.941 178.138,176.628 180.417 C 180.876 183.042,185.919 180.380,185.981 175.480 C 186.035 171.201,180.833 168.228,176.849 170.260 M301.400 181.921 L 325.800 194.200 325.800 196.156 C 325.800 198.504,326.646 197.929,317.200 202.001 C 314.213 203.288,312.715 203.945,309.100 205.554 C 305.957 206.953,304.031 207.801,299.000 210.000 C 296.360 211.154,293.390 212.457,292.400 212.895 C 291.410 213.333,289.880 214.009,289.000 214.399 C 288.120 214.788,286.050 215.688,284.400 216.400 C 282.750 217.112,280.636 218.037,279.701 218.456 C 275.538 220.325,275.200 220.214,275.200 216.982 C 275.200 214.327,275.314 214.235,282.400 211.200 C 285.590 209.833,289.150 208.284,290.312 207.758 C 291.473 207.231,292.504 206.800,292.602 206.800 C 292.700 206.800,293.959 206.260,295.400 205.600 C 296.841 204.940,298.100 204.400,298.198 204.400 C 298.296 204.400,299.372 203.950,300.588 203.400 C 301.805 202.850,303.795 201.950,305.012 201.400 C 306.228 200.850,307.303 200.400,307.400 200.400 C 307.497 200.400,308.527 199.973,309.688 199.451 C 310.850 198.929,312.970 197.997,314.400 197.381 C 315.830 196.765,317.137 196.146,317.303 196.007 C 317.470 195.867,308.308 191.174,296.942 185.577 C 273.651 174.107,275.200 175.057,275.200 172.238 C 275.200 168.478,273.267 167.763,301.400 181.921 M230.287 189.743 C 243.813 196.597,239.473 216.083,224.400 216.176 C 208.060 216.278,205.013 193.392,220.772 188.921 C 223.524 188.140,227.864 188.515,230.287 189.743 M220.873 197.189 C 216.756 199.772,217.498 205.920,222.183 208.048 C 228.916 211.106,233.858 201.913,227.881 197.451 C 226.272 196.249,222.589 196.112,220.873 197.189 " stroke="none" fill="#fbfbd4" fill-rule="evenodd"></path><path id="path2" d="M200.200 139.647 C 198.000 141.417,195.750 143.255,195.200 143.733 C 194.650 144.210,190.631 147.481,186.270 151.000 C 181.908 154.520,176.130 159.200,173.429 161.400 C 170.728 163.600,164.396 168.719,159.359 172.776 C 154.322 176.832,149.410 180.837,148.444 181.676 C 147.478 182.514,146.290 183.200,145.803 183.200 C 141.562 183.200,133.600 189.050,133.600 192.166 C 133.600 196.323,137.279 197.198,140.231 193.743 C 144.137 189.171,149.131 188.410,153.473 191.723 C 154.394 192.425,156.719 194.350,158.641 196.000 C 168.573 204.527,178.656 211.298,189.677 216.839 C 193.516 218.769,193.470 218.770,193.747 216.700 C 193.872 215.765,194.087 214.261,194.224 213.357 L 194.473 211.714 191.737 210.298 C 189.425 209.101,186.382 207.386,181.223 204.371 C 178.615 202.847,169.880 196.680,168.800 195.600 C 168.690 195.490,167.749 194.717,166.710 193.881 C 165.670 193.046,164.590 192.141,164.310 191.869 C 162.669 190.280,157.563 186.009,156.847 185.625 C 155.448 184.877,155.838 184.355,160.604 180.600 C 165.919 176.412,166.213 176.287,166.555 178.080 C 168.189 186.642,177.828 191.405,185.810 187.595 C 195.848 182.805,196.021 169.043,186.112 163.590 C 183.138 161.954,182.436 162.765,196.800 151.228 C 204.481 145.058,203.735 146.253,204.627 138.700 C 204.970 135.798,204.990 135.794,200.200 139.647 M182.646 169.565 C 187.700 171.860,187.990 178.855,183.146 181.581 C 177.231 184.910,170.394 176.878,174.528 171.458 C 176.496 168.878,179.560 168.164,182.646 169.565 M98.700 182.623 C 69.599 197.207,70.895 196.041,79.600 199.819 C 82.894 201.249,84.415 201.918,88.200 203.600 C 92.254 205.402,93.536 205.965,96.400 207.200 C 98.050 207.912,100.120 208.812,101.000 209.201 C 101.880 209.591,103.410 210.267,104.400 210.705 C 105.390 211.143,108.360 212.446,111.000 213.599 C 117.192 216.305,119.823 217.469,121.800 218.380 C 123.827 219.314,124.000 219.187,124.000 216.763 L 124.000 214.773 120.998 213.387 C 119.347 212.624,117.913 212.000,117.810 212.000 C 117.708 212.000,116.673 211.571,115.512 211.046 C 114.350 210.522,112.050 209.511,110.400 208.800 C 108.750 208.089,106.450 207.078,105.288 206.554 C 104.127 206.029,103.096 205.600,102.998 205.600 C 102.900 205.600,101.641 205.060,100.200 204.400 C 98.759 203.740,97.500 203.200,97.402 203.200 C 97.304 203.200,96.273 202.771,95.112 202.246 C 93.950 201.722,91.650 200.711,90.000 199.999 C 88.350 199.288,86.236 198.363,85.301 197.944 C 84.367 197.524,83.152 197.010,82.601 196.800 C 80.619 196.047,81.813 195.296,96.272 188.200 C 104.342 184.240,113.837 179.560,117.372 177.800 L 123.800 174.600 123.921 172.500 C 124.083 169.691,126.184 168.848,98.700 182.623 M276.079 172.492 L 276.200 174.585 279.200 176.081 C 280.850 176.903,290.446 181.631,300.525 186.586 C 310.936 191.705,318.743 195.769,318.602 195.997 C 318.386 196.345,314.280 198.400,313.798 198.400 C 313.700 198.400,312.441 198.940,311.000 199.600 C 309.559 200.260,308.300 200.800,308.202 200.800 C 308.104 200.800,307.073 201.229,305.912 201.754 C 304.750 202.278,302.450 203.289,300.800 204.001 C 299.150 204.712,297.080 205.614,296.200 206.006 C 295.320 206.397,293.880 207.014,293.000 207.377 C 292.120 207.740,290.770 208.313,290.000 208.650 C 289.230 208.987,285.810 210.471,282.400 211.948 L 276.200 214.633 276.076 216.572 C 275.899 219.333,276.089 219.351,281.239 217.062 C 283.790 215.928,286.670 214.657,287.639 214.238 C 288.607 213.819,290.300 213.074,291.400 212.584 C 292.500 212.094,294.750 211.111,296.400 210.399 C 298.050 209.688,300.210 208.747,301.200 208.307 C 308.036 205.275,309.566 204.600,314.600 202.401 C 317.240 201.247,320.350 199.875,321.512 199.352 C 322.673 198.828,323.770 198.400,323.950 198.400 C 324.708 198.400,325.653 196.808,325.530 195.738 C 325.407 194.664,278.444 170.400,276.487 170.400 C 276.101 170.400,275.991 170.963,276.079 172.492 M135.700 205.033 C 133.263 206.954,133.866 208.524,139.187 214.131 C 140.404 215.413,141.548 216.725,141.729 217.047 C 142.949 219.217,156.762 230.233,164.000 234.808 C 171.022 239.246,171.264 239.380,179.600 243.440 C 183.890 245.529,187.736 247.424,188.147 247.652 C 189.165 248.215,189.492 247.749,189.725 245.400 C 189.834 244.300,190.047 242.928,190.199 242.352 C 190.466 241.333,190.282 241.210,183.537 237.906 C 167.890 230.243,157.916 223.211,146.765 211.982 C 138.062 203.218,138.030 203.197,135.700 205.033 " stroke="none" fill="#9d360e" fill-rule="evenodd"></path><path id="path3" d="M241.400 105.627 C 239.200 107.399,237.040 109.154,236.600 109.529 C 236.160 109.903,233.010 112.455,229.600 115.199 C 226.190 117.944,223.205 120.372,222.967 120.595 C 222.729 120.818,218.882 123.970,214.419 127.600 C 207.051 133.593,202.451 137.530,204.000 136.519 C 204.776 136.012,210.926 131.039,219.000 124.389 C 229.540 115.709,243.238 104.675,244.933 103.500 C 245.806 102.895,246.268 102.401,245.960 102.403 C 245.652 102.404,243.600 103.855,241.400 105.627 M249.455 103.346 C 250.492 104.238,250.570 104.542,250.814 108.646 L 251.072 113.000 251.136 109.080 C 251.203 104.991,250.702 103.155,249.382 102.648 C 248.296 102.232,248.310 102.361,249.455 103.346 M240.705 115.315 C 239.327 116.479,235.879 119.314,233.043 121.615 C 225.217 127.965,212.683 138.101,208.200 141.704 C 206.000 143.473,203.944 145.298,203.632 145.760 C 203.125 146.510,204.538 145.519,205.597 144.381 C 205.708 144.261,208.590 141.930,212.000 139.201 C 215.410 136.472,218.847 133.690,219.637 133.019 C 220.428 132.349,221.418 131.527,221.837 131.193 C 224.676 128.933,239.039 117.286,240.992 115.659 C 244.010 113.146,243.990 113.126,244.051 118.724 C 244.079 121.296,244.243 125.380,244.416 127.800 C 244.651 131.089,244.691 129.967,244.575 123.358 C 244.370 111.751,244.531 112.085,240.705 115.315 M251.321 121.600 C 251.312 124.570,251.430 129.070,251.583 131.600 L 251.862 136.200 251.880 130.600 C 251.890 127.520,251.772 123.020,251.617 120.600 L 251.336 116.200 251.321 121.600 M244.918 141.200 C 244.909 144.170,245.028 148.580,245.183 151.000 L 245.464 155.400 245.483 149.800 C 245.493 146.720,245.374 142.310,245.218 140.000 L 244.934 135.800 244.918 141.200 M252.119 145.000 C 252.110 148.080,252.228 152.580,252.383 155.000 L 252.664 159.400 252.681 153.800 C 252.690 150.720,252.572 146.220,252.417 143.800 L 252.136 139.400 252.119 145.000 M217.000 140.543 C 211.954 141.829,206.323 146.905,206.415 150.084 C 206.423 150.368,206.905 149.651,207.486 148.491 C 211.598 140.280,222.089 138.277,228.622 144.456 C 235.158 150.637,234.293 160.722,226.800 165.694 C 226.250 166.059,226.010 166.367,226.268 166.379 C 227.958 166.455,232.079 161.158,233.221 157.442 C 235.954 148.553,226.050 138.236,217.000 140.543 M218.700 147.882 C 219.195 147.978,220.005 147.978,220.500 147.882 C 220.995 147.787,220.590 147.709,219.600 147.709 C 218.610 147.709,218.205 147.787,218.700 147.882 M215.176 149.081 C 208.944 154.325,216.058 163.966,223.198 159.953 C 227.789 157.373,226.899 147.959,222.069 148.007 C 221.701 148.010,222.120 148.418,223.000 148.913 C 228.702 152.118,225.907 160.777,219.326 160.291 C 212.974 159.823,210.876 151.695,216.360 148.797 C 217.167 148.370,217.506 148.028,217.131 148.018 C 216.763 148.008,215.883 148.487,215.176 149.081 M205.843 151.433 C 205.236 153.015,205.968 158.465,206.913 159.400 C 207.185 159.669,207.221 159.538,207.023 159.000 C 206.474 157.508,206.016 153.406,206.253 152.100 C 206.500 150.739,206.259 150.347,205.843 151.433 M245.719 164.200 C 245.710 167.280,245.828 171.780,245.983 174.200 L 246.264 178.600 246.281 173.000 C 246.290 169.920,246.172 165.420,246.017 163.000 L 245.736 158.600 245.719 164.200 M207.224 160.108 C 207.034 162.591,214.371 168.088,217.715 167.968 C 218.437 167.943,218.379 167.867,217.400 167.557 C 216.740 167.348,215.570 166.976,214.800 166.730 C 212.292 165.930,209.710 163.675,207.724 160.550 C 207.461 160.137,207.236 159.939,207.224 160.108 M184.480 161.280 C 183.788 161.972,183.882 162.315,184.900 162.808 C 185.753 163.222,185.761 163.213,185.041 162.635 C 184.413 162.131,184.370 161.919,184.790 161.413 C 185.392 160.687,185.168 160.592,184.480 161.280 M252.920 168.200 C 252.910 171.280,253.028 175.780,253.183 178.200 L 253.464 182.600 253.479 177.200 C 253.488 174.230,253.370 169.730,253.217 167.200 L 252.938 162.600 252.920 168.200 M224.679 166.655 C 224.539 166.795,223.474 167.139,222.312 167.421 C 221.004 167.737,220.596 167.945,221.240 167.966 C 221.812 167.985,222.892 167.795,223.640 167.545 C 225.077 167.065,226.068 166.400,225.347 166.400 C 225.119 166.400,224.819 166.515,224.679 166.655 M178.000 169.206 C 177.578 169.482,177.815 169.523,178.800 169.342 C 180.525 169.025,180.851 168.798,179.567 168.806 C 179.035 168.809,178.330 168.989,178.000 169.206 M123.181 170.020 C 122.695 170.328,122.711 170.389,123.279 170.394 C 123.812 170.399,123.990 170.852,124.105 172.500 L 124.252 174.600 124.326 172.324 C 124.404 169.935,124.144 169.411,123.181 170.020 M275.672 172.067 C 275.592 174.130,275.873 175.200,276.492 175.200 C 276.758 175.200,276.752 175.024,276.475 174.690 C 276.242 174.409,275.982 173.284,275.898 172.190 L 275.744 170.200 275.672 172.067 M184.000 180.460 C 183.230 181.135,182.962 181.505,183.404 181.281 C 184.135 180.911,185.947 179.178,185.562 179.216 C 185.473 179.225,184.770 179.785,184.000 180.460 M179.300 181.887 C 179.905 181.978,180.895 181.978,181.500 181.887 C 182.105 181.795,181.610 181.720,180.400 181.720 C 179.190 181.720,178.695 181.795,179.300 181.887 M246.516 187.600 C 246.506 190.570,246.626 194.890,246.782 197.200 L 247.066 201.400 247.084 196.000 C 247.094 193.030,246.974 188.710,246.818 186.400 L 246.534 182.200 246.516 187.600 M156.591 184.009 C 155.988 184.677,155.952 184.905,156.388 185.309 C 156.809 185.700,156.856 185.692,156.619 185.275 C 156.448 184.973,156.620 184.420,157.023 183.975 C 157.408 183.549,157.634 183.200,157.524 183.200 C 157.414 183.200,156.994 183.564,156.591 184.009 M168.800 184.125 C 168.800 184.194,169.385 184.779,170.100 185.425 L 171.400 186.600 170.225 185.300 C 169.130 184.088,168.800 183.816,168.800 184.125 M253.720 191.400 C 253.710 194.480,253.828 198.980,253.983 201.400 L 254.264 205.800 254.279 200.400 C 254.288 197.430,254.170 192.930,254.017 190.400 L 253.738 185.800 253.720 191.400 M134.929 188.900 C 134.484 189.395,133.976 190.070,133.801 190.400 C 133.463 191.037,133.555 190.950,135.176 189.100 C 135.706 188.495,136.049 188.000,135.939 188.000 C 135.829 188.000,135.375 188.405,134.929 188.900 M223.905 188.683 C 224.402 188.779,225.122 188.775,225.505 188.675 C 225.887 188.575,225.480 188.496,224.600 188.501 C 223.720 188.505,223.407 188.587,223.905 188.683 M219.800 189.331 C 216.103 190.781,211.200 195.621,211.200 197.821 C 211.200 198.205,211.665 197.637,212.233 196.560 C 214.126 192.967,217.231 190.459,221.110 189.392 C 222.285 189.068,222.622 188.870,222.000 188.866 C 221.450 188.863,220.460 189.073,219.800 189.331 M228.022 189.380 C 241.209 194.239,241.079 211.220,227.822 215.409 C 226.700 215.763,226.479 215.933,227.104 215.960 C 232.073 216.178,238.374 208.616,238.395 202.411 C 238.415 196.692,231.862 188.652,227.325 188.828 C 226.926 188.844,227.240 189.092,228.022 189.380 M179.100 189.482 C 179.595 189.578,180.405 189.578,180.900 189.482 C 181.395 189.387,180.990 189.309,180.000 189.309 C 179.010 189.309,178.605 189.387,179.100 189.482 M146.000 189.995 C 145.591 190.255,145.910 190.299,147.000 190.132 C 148.977 189.829,149.314 189.598,147.767 189.606 C 147.125 189.609,146.330 189.784,146.000 189.995 M163.200 190.525 C 163.200 190.594,163.785 191.179,164.500 191.825 L 165.800 193.000 164.625 191.700 C 163.530 190.488,163.200 190.216,163.200 190.525 M140.975 192.900 L 139.800 194.200 141.100 193.025 C 142.312 191.930,142.584 191.600,142.275 191.600 C 142.206 191.600,141.621 192.185,140.975 192.900 M156.200 194.400 C 157.059 195.280,157.852 196.000,157.962 196.000 C 158.072 196.000,157.459 195.280,156.600 194.400 C 155.741 193.520,154.948 192.800,154.838 192.800 C 154.728 192.800,155.341 193.520,156.200 194.400 M317.730 195.463 C 317.875 195.608,317.770 195.997,317.497 196.328 C 317.090 196.821,317.109 196.894,317.600 196.732 C 318.341 196.487,318.645 195.200,317.963 195.200 C 317.690 195.200,317.585 195.318,317.730 195.463 M220.516 196.786 C 216.051 199.508,217.634 208.815,222.559 208.799 C 222.802 208.798,222.370 208.413,221.600 207.944 C 216.784 205.009,216.869 198.754,221.753 196.612 C 222.439 196.311,222.730 196.051,222.400 196.034 C 222.070 196.017,221.222 196.355,220.516 196.786 M226.941 196.801 C 231.815 199.234,232.083 205.210,227.445 208.038 C 226.760 208.455,226.442 208.798,226.738 208.799 C 228.708 208.804,231.200 205.160,231.200 202.275 C 231.200 199.609,228.194 195.962,226.041 196.016 C 225.688 196.025,226.093 196.378,226.941 196.801 M210.652 199.700 C 208.943 206.077,215.524 216.148,221.284 215.972 C 221.858 215.954,221.444 215.686,220.175 215.253 C 214.104 213.181,210.358 207.181,211.090 200.700 C 211.314 198.715,211.067 198.152,210.652 199.700 M168.200 204.188 C 169.408 205.246,170.800 206.153,170.800 205.882 C 170.800 205.801,169.945 205.151,168.900 204.436 C 167.462 203.452,167.292 203.392,168.200 204.188 M138.800 204.073 C 142.697 207.609,143.380 208.152,141.800 206.455 C 140.920 205.510,139.840 204.547,139.400 204.314 C 138.960 204.082,138.690 203.973,138.800 204.073 M247.260 209.313 C 247.188 215.003,247.650 216.490,249.700 217.167 C 251.467 217.750,254.400 216.490,254.400 215.148 C 254.400 214.977,253.958 215.278,253.418 215.818 C 252.712 216.524,251.999 216.800,250.880 216.800 C 248.312 216.800,247.973 216.085,247.623 209.927 L 247.320 204.600 247.260 209.313 M224.100 209.076 C 224.485 209.176,225.115 209.176,225.500 209.076 C 225.885 208.975,225.570 208.893,224.800 208.893 C 224.030 208.893,223.715 208.975,224.100 209.076 M147.600 213.000 C 149.681 215.090,151.474 216.800,151.584 216.800 C 151.694 216.800,150.081 215.090,148.000 213.000 C 145.919 210.910,144.126 209.200,144.016 209.200 C 143.906 209.200,145.519 210.910,147.600 213.000 M254.531 211.800 C 254.533 213.340,254.605 213.921,254.692 213.091 C 254.779 212.261,254.777 211.001,254.689 210.291 C 254.600 209.581,254.529 210.260,254.531 211.800 M194.433 211.348 C 195.737 212.510,215.798 220.335,216.268 219.865 C 216.369 219.765,215.225 219.279,213.726 218.786 C 212.226 218.294,209.200 217.179,207.000 216.309 C 203.201 214.807,202.290 214.418,197.288 212.155 C 195.456 211.326,193.922 210.893,194.433 211.348 M124.128 216.800 C 124.128 218.230,124.201 218.815,124.289 218.100 C 124.378 217.385,124.378 216.215,124.289 215.500 C 124.201 214.785,124.128 215.370,124.128 216.800 M275.720 216.800 C 275.720 218.010,275.795 218.505,275.887 217.900 C 275.978 217.295,275.978 216.305,275.887 215.700 C 275.795 215.095,275.720 215.590,275.720 216.800 M142.400 218.200 C 143.817 219.630,145.067 220.800,145.177 220.800 C 145.287 220.800,144.217 219.630,142.800 218.200 C 141.383 216.770,140.133 215.600,140.023 215.600 C 139.913 215.600,140.983 216.770,142.400 218.200 M223.100 216.282 C 223.595 216.378,224.405 216.378,224.900 216.282 C 225.395 216.187,224.990 216.109,224.000 216.109 C 223.010 216.109,222.605 216.187,223.100 216.282 M195.600 219.395 C 195.600 219.688,198.495 220.838,198.705 220.629 C 198.805 220.529,198.215 220.166,197.394 219.823 C 195.768 219.144,195.600 219.104,195.600 219.395 M217.200 220.356 C 218.260 220.941,227.198 223.268,227.708 223.091 C 227.979 222.997,227.570 222.787,226.800 222.624 C 226.030 222.461,223.573 221.804,221.340 221.164 C 217.192 219.975,216.137 219.769,217.200 220.356 M199.420 221.133 C 200.021 221.659,204.105 223.229,204.318 223.015 C 204.424 222.909,204.081 222.659,203.555 222.459 C 203.030 222.259,201.903 221.804,201.051 221.448 C 199.328 220.727,198.852 220.635,199.420 221.133 M146.400 221.725 C 146.400 221.794,146.985 222.379,147.700 223.025 L 149.000 224.200 147.825 222.900 C 146.730 221.688,146.400 221.416,146.400 221.725 M204.800 223.337 C 204.800 223.599,210.446 225.687,210.637 225.496 C 210.743 225.390,209.553 224.830,207.992 224.252 C 205.106 223.182,204.800 223.094,204.800 223.337 M229.400 223.600 C 229.840 223.789,230.650 223.944,231.200 223.944 C 232.112 223.944,232.129 223.913,231.400 223.600 C 230.960 223.411,230.150 223.256,229.600 223.256 C 228.688 223.256,228.671 223.287,229.400 223.600 M233.200 224.400 C 233.750 224.576,234.740 224.720,235.400 224.720 C 236.567 224.720,236.572 224.711,235.600 224.400 C 235.050 224.224,234.060 224.080,233.400 224.080 C 232.233 224.080,232.228 224.089,233.200 224.400 M238.600 225.223 C 239.480 225.405,240.920 225.544,241.800 225.531 L 243.400 225.508 241.800 225.177 C 240.920 224.995,239.480 224.856,238.600 224.869 L 237.000 224.892 238.600 225.223 M211.600 226.000 C 211.930 226.213,212.470 226.388,212.800 226.388 C 213.333 226.388,213.333 226.345,212.800 226.000 C 212.470 225.787,211.930 225.612,211.600 225.612 C 211.067 225.612,211.067 225.655,211.600 226.000 M244.800 226.000 C 245.350 226.176,246.160 226.326,246.600 226.332 L 247.400 226.344 246.600 226.000 C 246.160 225.811,245.350 225.662,244.800 225.668 L 243.800 225.680 244.800 226.000 M213.600 226.572 C 213.600 226.808,217.795 228.009,218.462 227.964 C 218.758 227.943,217.920 227.586,216.600 227.169 C 214.111 226.383,213.600 226.281,213.600 226.572 M249.487 227.394 C 251.796 228.444,255.147 231.373,256.448 233.478 C 256.912 234.228,257.386 234.747,257.502 234.631 C 258.588 233.545,250.154 226.323,247.916 226.423 C 247.632 226.436,248.339 226.873,249.487 227.394 M219.600 228.400 C 219.930 228.613,220.560 228.788,221.000 228.788 C 221.662 228.788,221.697 228.721,221.200 228.400 C 220.870 228.187,220.240 228.012,219.800 228.012 C 219.138 228.012,219.103 228.079,219.600 228.400 M224.200 229.631 C 225.520 230.048,226.870 230.375,227.200 230.358 C 227.530 230.341,226.720 229.986,225.400 229.569 C 224.080 229.152,222.730 228.825,222.400 228.842 C 222.070 228.859,222.880 229.214,224.200 229.631 M228.600 230.800 C 229.040 230.989,229.940 231.138,230.600 231.132 C 231.770 231.121,231.775 231.112,230.800 230.800 C 229.333 230.330,227.506 230.330,228.600 230.800 M171.600 231.379 C 171.600 231.489,172.140 231.859,172.800 232.200 C 173.460 232.541,174.000 232.731,174.000 232.621 C 174.000 232.511,173.460 232.141,172.800 231.800 C 172.140 231.459,171.600 231.269,171.600 231.379 M232.600 231.600 C 233.040 231.789,234.030 231.938,234.800 231.932 C 236.073 231.921,236.109 231.891,235.200 231.600 C 233.748 231.135,231.518 231.135,232.600 231.600 M241.944 232.853 C 249.151 234.346,251.409 236.487,252.010 242.400 L 252.274 245.000 252.337 242.546 C 252.488 236.646,246.579 231.850,239.400 232.045 C 238.740 232.063,239.885 232.426,241.944 232.853 M257.611 235.220 C 257.653 235.892,259.150 239.669,259.172 239.160 C 259.207 238.362,258.409 235.930,257.945 235.420 C 257.755 235.211,257.605 235.121,257.611 235.220 M189.034 240.456 C 189.151 240.645,189.654 240.800,190.151 240.800 C 190.648 240.800,193.285 241.702,196.012 242.805 C 198.739 243.908,201.130 244.757,201.326 244.691 C 201.522 244.626,199.469 243.693,196.764 242.619 C 191.946 240.704,188.611 239.771,189.034 240.456 M259.314 242.200 C 259.317 243.300,259.395 243.703,259.487 243.095 C 259.579 242.486,259.577 241.586,259.482 241.095 C 259.387 240.603,259.311 241.100,259.314 242.200 M202.000 244.972 C 202.000 245.239,206.463 246.470,206.673 246.261 C 206.775 246.158,205.873 245.787,204.668 245.437 C 202.336 244.759,202.000 244.700,202.000 244.972 M258.622 246.329 C 258.458 247.059,258.422 247.756,258.542 247.876 C 258.843 248.177,259.320 246.156,259.099 245.517 C 259.001 245.233,258.786 245.598,258.622 246.329 M207.200 246.572 C 207.200 246.839,211.663 248.070,211.873 247.861 C 211.975 247.758,211.073 247.387,209.868 247.037 C 207.536 246.359,207.200 246.300,207.200 246.572 M250.191 248.158 C 249.276 249.555,247.168 250.795,244.674 251.405 C 243.516 251.688,243.021 251.931,243.554 251.956 C 245.963 252.068,252.092 248.387,251.132 247.405 C 250.985 247.254,250.561 247.593,250.191 248.158 M190.033 248.163 C 190.416 248.538,197.651 251.283,197.817 251.116 C 197.917 251.016,196.331 250.274,194.292 249.467 C 190.918 248.132,189.584 247.724,190.033 248.163 M212.800 248.400 C 213.130 248.613,213.850 248.778,214.400 248.766 C 215.316 248.746,215.333 248.715,214.600 248.400 C 213.416 247.891,212.013 247.891,212.800 248.400 M257.410 249.977 C 256.000 253.105,251.417 256.839,247.800 257.807 C 246.987 258.024,246.818 258.180,247.275 258.289 C 249.890 258.910,259.847 250.114,258.290 248.557 C 258.200 248.466,257.803 249.105,257.410 249.977 M216.200 249.200 C 216.640 249.389,217.450 249.544,218.000 249.544 C 218.912 249.544,218.929 249.513,218.200 249.200 C 217.760 249.011,216.950 248.856,216.400 248.856 C 215.488 248.856,215.471 248.887,216.200 249.200 M220.200 250.000 C 220.640 250.189,221.540 250.338,222.200 250.332 C 223.370 250.321,223.375 250.312,222.400 250.000 C 220.933 249.530,219.106 249.530,220.200 250.000 M224.800 250.800 C 225.350 250.976,226.430 251.117,227.200 251.113 L 228.600 251.105 227.400 250.800 C 225.639 250.352,223.401 250.352,224.800 250.800 M199.974 252.043 C 200.950 252.476,202.030 252.772,202.374 252.702 C 202.718 252.631,202.066 252.265,200.925 251.887 C 198.201 250.985,197.754 251.059,199.974 252.043 M231.400 251.618 C 232.500 251.790,234.750 251.917,236.400 251.902 L 239.400 251.874 236.600 251.587 C 235.060 251.429,232.810 251.301,231.600 251.303 L 229.400 251.307 231.400 251.618 M203.200 252.963 C 203.200 253.255,207.612 254.521,207.839 254.295 C 207.960 254.173,207.073 253.787,205.868 253.437 C 203.552 252.764,203.200 252.701,203.200 252.963 M210.600 255.231 C 211.920 255.648,213.270 255.975,213.600 255.958 C 213.930 255.941,213.120 255.586,211.800 255.169 C 210.480 254.752,209.130 254.425,208.800 254.442 C 208.470 254.459,209.280 254.814,210.600 255.231 M215.000 256.400 C 215.440 256.589,216.340 256.738,217.000 256.732 C 218.170 256.721,218.175 256.712,217.200 256.400 C 215.733 255.930,213.906 255.930,215.000 256.400 M219.000 257.200 C 219.440 257.389,220.340 257.538,221.000 257.532 C 222.170 257.521,222.175 257.512,221.200 257.200 C 219.733 256.730,217.906 256.730,219.000 257.200 M223.600 258.000 C 224.150 258.176,225.320 258.317,226.200 258.313 C 227.722 258.306,227.742 258.290,226.600 258.000 C 224.860 257.557,222.218 257.557,223.600 258.000 M230.400 258.807 C 232.161 259.133,240.296 259.343,239.967 259.053 C 239.875 258.973,237.280 258.809,234.200 258.690 C 230.687 258.554,229.271 258.597,230.400 258.807 M243.200 258.800 L 241.400 259.080 243.200 259.112 C 244.190 259.129,245.360 258.989,245.800 258.800 L 246.600 258.456 245.800 258.488 C 245.360 258.506,244.190 258.646,243.200 258.800 " stroke="none" fill="#eec280" fill-rule="evenodd"></path><path id="path4" d="M251.320 114.400 C 251.320 115.610,251.395 116.105,251.487 115.500 C 251.578 114.895,251.578 113.905,251.487 113.300 C 251.395 112.695,251.320 113.190,251.320 114.400 M251.709 122.400 C 251.709 123.390,251.787 123.795,251.882 123.300 C 251.978 122.805,251.978 121.995,251.882 121.500 C 251.787 121.005,251.709 121.410,251.709 122.400 M244.109 126.000 C 244.109 126.990,244.187 127.395,244.282 126.900 C 244.378 126.405,244.378 125.595,244.282 125.100 C 244.187 124.605,244.109 125.010,244.109 126.000 M244.520 134.000 C 244.520 135.210,244.595 135.705,244.687 135.100 C 244.778 134.495,244.778 133.505,244.687 132.900 C 244.595 132.295,244.520 132.790,244.520 134.000 M201.189 138.026 C 198.117 140.520,196.143 142.364,198.041 140.966 C 200.025 139.506,204.400 135.926,204.400 135.763 C 204.400 135.446,204.150 135.623,201.189 138.026 M252.120 137.600 C 252.120 138.810,252.195 139.305,252.287 138.700 C 252.378 138.095,252.378 137.105,252.287 136.500 C 252.195 135.895,252.120 136.390,252.120 137.600 M194.600 143.473 C 192.995 144.921,193.613 144.613,195.731 142.909 C 196.353 142.409,196.713 142.007,196.531 142.015 C 196.349 142.023,195.480 142.680,194.600 143.473 M252.509 145.600 C 252.509 146.590,252.587 146.995,252.682 146.500 C 252.778 146.005,252.778 145.195,252.682 144.700 C 252.587 144.205,252.509 144.610,252.509 145.600 M186.859 149.582 C 183.921 151.963,181.221 154.240,180.859 154.642 C 180.231 155.339,180.237 155.344,181.000 154.736 C 188.170 149.023,192.801 145.205,192.534 145.227 C 192.350 145.242,189.796 147.202,186.859 149.582 M202.144 147.300 C 201.040 148.235,197.387 151.205,194.028 153.900 C 190.668 156.595,188.036 158.800,188.180 158.800 C 188.492 158.800,204.400 146.024,204.400 145.774 C 204.400 145.436,204.131 145.618,202.144 147.300 M244.901 149.000 C 244.905 149.880,244.987 150.193,245.083 149.695 C 245.179 149.198,245.175 148.478,245.075 148.095 C 244.975 147.713,244.896 148.120,244.901 149.000 M245.314 157.000 C 245.317 158.100,245.395 158.503,245.487 157.895 C 245.579 157.286,245.577 156.386,245.482 155.895 C 245.387 155.403,245.311 155.900,245.314 157.000 M174.000 160.045 C 168.910 164.192,166.061 166.716,168.444 164.966 C 170.986 163.100,180.053 155.602,179.743 155.622 C 179.555 155.635,176.970 157.625,174.000 160.045 M252.920 160.800 C 252.920 162.010,252.995 162.505,253.087 161.900 C 253.178 161.295,253.178 160.305,253.087 159.700 C 252.995 159.095,252.920 159.590,252.920 160.800 M185.800 160.578 C 184.193 161.950,184.405 163.137,186.268 163.187 C 187.343 163.217,191.234 167.362,192.414 169.735 C 193.089 171.091,193.524 171.750,193.382 171.200 C 192.639 168.317,187.885 162.800,186.144 162.800 C 184.824 162.800,184.899 161.798,186.312 160.549 C 187.130 159.825,187.710 159.228,187.600 159.223 C 187.490 159.217,186.680 159.826,185.800 160.578 M159.262 171.980 C 155.227 175.238,151.627 178.237,151.262 178.643 C 150.766 179.197,150.851 179.175,151.600 178.558 C 152.150 178.104,154.400 176.309,156.600 174.569 C 163.533 169.085,167.264 165.999,166.927 166.028 C 166.747 166.043,163.298 168.721,159.262 171.980 M253.309 169.200 C 253.309 170.190,253.387 170.595,253.482 170.100 C 253.578 169.605,253.578 168.795,253.482 168.300 C 253.387 167.805,253.309 168.210,253.309 169.200 M180.400 169.661 C 185.987 170.753,187.804 175.663,184.224 179.997 L 183.400 180.994 184.333 180.205 C 188.543 176.645,186.110 169.991,180.397 169.442 L 178.200 169.231 180.400 169.661 M98.600 181.921 L 74.200 194.200 74.074 195.954 C 74.005 196.919,74.095 197.856,74.274 198.035 C 74.453 198.215,74.538 197.479,74.463 196.400 L 74.325 194.439 99.063 182.041 C 112.668 175.223,123.620 169.643,123.400 169.643 C 123.180 169.642,112.020 175.168,98.600 181.921 M124.312 171.899 C 124.449 174.742,124.480 174.703,120.700 176.553 C 118.995 177.387,117.600 178.138,117.600 178.222 C 117.600 178.461,118.753 177.962,121.793 176.408 L 124.600 174.973 124.718 172.286 C 124.783 170.809,124.693 169.600,124.518 169.599 C 124.343 169.599,124.250 170.634,124.312 171.899 M175.846 170.435 C 173.987 171.897,172.640 176.956,173.900 177.739 C 174.065 177.842,174.148 176.908,174.084 175.663 C 173.945 172.957,174.800 171.293,176.849 170.284 C 177.592 169.918,177.909 169.614,177.554 169.609 C 177.199 169.604,176.430 169.976,175.846 170.435 M275.467 169.867 C 275.106 170.227,275.138 174.083,275.506 174.662 C 275.668 174.916,275.800 173.881,275.800 172.362 C 275.800 170.843,275.785 169.600,275.767 169.600 C 275.748 169.600,275.613 169.720,275.467 169.867 M245.701 172.200 C 245.705 173.080,245.787 173.393,245.883 172.895 C 245.979 172.398,245.975 171.678,245.875 171.295 C 245.775 170.913,245.696 171.320,245.701 172.200 M193.563 175.800 C 193.436 177.780,193.202 179.850,193.044 180.400 C 192.886 180.950,193.043 180.778,193.393 180.019 C 193.849 179.029,193.996 177.725,193.912 175.419 L 193.794 172.200 193.563 175.800 M284.400 179.400 C 287.150 180.807,289.580 181.958,289.800 181.958 C 290.020 181.958,287.950 180.807,285.200 179.400 C 282.450 177.993,280.020 176.842,279.800 176.842 C 279.580 176.842,281.650 177.993,284.400 179.400 M160.900 180.838 C 155.727 185.014,155.882 184.719,158.100 186.171 C 159.400 187.022,159.623 187.088,159.047 186.452 C 158.633 185.995,157.958 185.514,157.547 185.383 C 156.340 185.000,156.585 184.707,161.160 181.068 C 165.982 177.232,165.997 177.224,166.006 178.500 C 166.009 178.995,166.206 179.670,166.444 180.000 C 166.803 180.499,166.835 180.477,166.638 179.867 C 166.507 179.464,166.400 178.699,166.400 178.167 C 166.400 176.630,165.680 176.979,160.900 180.838 M246.120 180.400 C 246.120 181.610,246.195 182.105,246.287 181.500 C 246.378 180.895,246.378 179.905,246.287 179.300 C 246.195 178.695,246.120 179.190,246.120 180.400 M148.085 181.057 C 146.659 182.232,145.590 182.800,144.804 182.800 C 144.162 182.800,143.134 183.003,142.519 183.251 C 140.038 184.250,137.962 185.365,137.494 185.950 C 137.171 186.354,137.416 186.292,138.200 185.770 C 140.333 184.350,143.279 183.200,144.783 183.200 C 145.756 183.200,147.312 182.235,150.367 179.736 C 150.458 179.661,150.458 179.535,150.367 179.457 C 150.275 179.378,149.248 180.098,148.085 181.057 M108.400 182.600 C 105.650 184.007,103.580 185.158,103.800 185.158 C 104.020 185.158,106.450 184.007,109.200 182.600 C 111.950 181.193,114.020 180.042,113.800 180.042 C 113.580 180.042,111.150 181.193,108.400 182.600 M176.925 180.900 C 177.345 181.285,178.164 181.582,178.744 181.559 C 179.712 181.522,179.692 181.493,178.502 181.210 C 177.789 181.041,176.970 180.744,176.684 180.551 C 176.397 180.358,176.506 180.515,176.925 180.900 M191.658 182.900 C 190.455 184.837,187.996 187.079,186.300 187.786 C 185.475 188.130,184.800 188.501,184.800 188.611 C 184.800 189.924,190.679 185.268,192.136 182.800 C 193.095 181.177,192.673 181.265,191.658 182.900 M167.883 183.144 C 169.381 185.953,173.687 188.881,177.029 189.364 C 178.598 189.591,178.597 189.591,176.800 189.062 C 172.956 187.932,170.007 185.866,167.864 182.800 C 167.236 181.902,167.238 181.937,167.883 183.144 M253.720 184.000 C 253.720 185.210,253.795 185.705,253.887 185.100 C 253.978 184.495,253.978 183.505,253.887 182.900 C 253.795 182.295,253.720 182.790,253.720 184.000 M292.000 182.937 C 292.000 183.038,294.115 184.160,296.700 185.430 C 299.285 186.700,301.535 187.809,301.700 187.893 C 301.865 187.978,302.000 187.965,302.000 187.863 C 302.000 187.762,299.885 186.640,297.300 185.370 C 294.715 184.100,292.465 182.991,292.300 182.907 C 292.135 182.822,292.000 182.835,292.000 182.937 M97.483 187.954 C 94.449 189.464,91.839 190.841,91.683 191.014 C 91.527 191.187,91.580 191.241,91.800 191.134 C 100.542 186.888,103.802 185.177,103.100 185.204 C 103.045 185.206,100.517 186.443,97.483 187.954 M134.880 188.404 C 132.485 191.288,132.340 194.272,134.520 195.799 C 135.917 196.778,136.161 196.484,134.860 195.389 C 132.649 193.528,132.913 190.863,135.584 188.100 C 136.275 187.385,136.696 186.803,136.520 186.807 C 136.344 186.811,135.606 187.530,134.880 188.404 M161.699 189.080 C 165.268 192.184,165.753 192.512,163.223 190.111 C 161.780 188.742,160.464 187.617,160.299 187.611 C 160.133 187.605,160.763 188.266,161.699 189.080 M311.600 192.779 L 317.800 195.916 316.083 196.608 C 315.139 196.989,314.437 197.370,314.522 197.455 C 314.753 197.686,317.507 196.474,317.789 196.017 C 318.005 195.668,306.479 189.568,305.705 189.621 C 305.537 189.633,308.190 191.054,311.600 192.779 M148.400 190.420 C 151.480 190.971,152.958 191.759,155.767 194.348 C 159.983 198.234,169.600 205.975,169.600 205.483 C 169.600 205.380,168.602 204.542,167.382 203.621 C 164.063 201.116,158.065 196.116,155.800 193.967 C 153.100 191.405,151.222 190.441,148.492 190.216 L 146.200 190.027 148.400 190.420 M143.528 191.213 C 142.718 191.641,141.293 192.895,140.360 194.001 C 139.379 195.165,138.145 196.163,137.432 196.370 C 136.334 196.689,136.306 196.732,137.174 196.764 C 137.873 196.790,138.776 196.127,140.374 194.414 C 141.629 193.069,143.385 191.677,144.400 191.223 C 145.390 190.780,145.930 190.422,145.600 190.426 C 145.270 190.431,144.337 190.785,143.528 191.213 M254.109 192.400 C 254.109 193.390,254.187 193.795,254.282 193.300 C 254.378 192.805,254.378 191.995,254.282 191.500 C 254.187 191.005,254.109 191.410,254.109 192.400 M214.181 192.900 L 212.600 194.600 214.300 193.019 C 215.881 191.548,216.184 191.200,215.881 191.200 C 215.816 191.200,215.051 191.965,214.181 192.900 M232.800 191.325 C 232.800 191.394,233.385 191.979,234.100 192.625 L 235.400 193.800 234.225 192.500 C 233.130 191.288,232.800 191.016,232.800 191.325 M85.468 193.841 C 82.198 195.507,81.224 196.800,83.237 196.800 C 83.424 196.800,84.527 197.232,85.688 197.759 C 89.152 199.333,90.914 200.020,91.074 199.859 C 91.158 199.776,90.635 199.472,89.913 199.183 C 89.191 198.894,87.666 198.240,86.524 197.728 C 85.382 197.217,83.942 196.602,83.324 196.363 C 82.220 195.935,82.268 195.892,86.000 193.984 C 88.090 192.915,89.620 192.041,89.400 192.041 C 89.180 192.041,87.411 192.851,85.468 193.841 M169.460 195.728 C 174.182 199.531,187.777 208.356,188.224 207.909 C 188.297 207.836,186.702 206.802,184.679 205.611 C 179.336 202.467,173.023 198.211,169.731 195.533 C 168.154 194.250,166.741 193.200,166.591 193.200 C 166.442 193.200,167.733 194.338,169.460 195.728 M325.100 193.999 C 326.074 195.091,325.732 197.970,324.576 198.409 C 324.013 198.623,322.568 199.249,321.365 199.799 C 320.161 200.350,319.012 200.800,318.812 200.800 C 318.611 200.800,318.336 200.979,318.201 201.199 C 317.921 201.652,318.806 201.351,322.324 199.795 C 325.803 198.257,325.790 198.270,325.919 196.324 C 326.009 194.969,325.862 194.396,325.319 193.984 C 324.705 193.518,324.673 193.520,325.100 193.999 M246.509 195.600 C 246.509 196.590,246.587 196.995,246.682 196.500 C 246.778 196.005,246.778 195.195,246.682 194.700 C 246.587 194.205,246.509 194.610,246.509 195.600 M223.505 196.283 C 224.002 196.379,224.722 196.375,225.105 196.275 C 225.487 196.175,225.080 196.096,224.200 196.101 C 223.320 196.105,223.007 196.187,223.505 196.283 M312.133 198.322 C 311.216 198.695,310.316 199.151,310.133 199.336 C 309.712 199.760,313.266 198.399,313.780 197.940 C 314.293 197.481,314.080 197.531,312.133 198.322 M75.254 198.587 C 75.590 198.923,78.400 200.016,78.400 199.811 C 78.400 199.701,77.748 199.338,76.951 199.005 C 75.475 198.389,74.918 198.251,75.254 198.587 M308.000 200.105 C 303.426 202.169,301.930 202.800,301.614 202.800 C 301.412 202.800,301.136 202.979,301.001 203.199 C 300.720 203.653,301.617 203.347,305.124 201.793 C 308.801 200.164,309.825 199.651,309.400 199.653 C 309.180 199.653,308.550 199.857,308.000 200.105 M91.800 200.311 C 92.160 200.643,94.867 201.798,96.400 202.274 C 96.908 202.432,96.906 202.399,96.385 202.058 C 95.468 201.458,91.336 199.884,91.800 200.311 M80.000 200.589 C 80.000 200.906,82.900 202.033,83.128 201.805 C 83.241 201.692,83.235 201.600,83.116 201.600 C 82.996 201.600,82.246 201.328,81.449 200.995 C 80.652 200.662,80.000 200.479,80.000 200.589 M246.920 203.200 C 246.920 204.410,246.995 204.905,247.087 204.300 C 247.178 203.695,247.178 202.705,247.087 202.100 C 246.995 201.495,246.920 201.990,246.920 203.200 M315.700 202.234 C 314.985 202.546,314.400 202.894,314.400 203.007 C 314.400 203.215,317.206 202.127,317.546 201.787 C 317.886 201.447,317.020 201.657,315.700 202.234 M83.801 202.401 C 83.936 202.621,84.211 202.800,84.412 202.800 C 84.612 202.800,85.761 203.250,86.965 203.801 C 90.244 205.301,91.285 205.662,90.999 205.199 C 90.864 204.979,90.589 204.800,90.388 204.800 C 90.188 204.800,89.039 204.350,87.835 203.799 C 84.556 202.299,83.515 201.938,83.801 202.401 M97.400 202.709 C 97.620 202.913,98.610 203.391,99.600 203.770 C 100.590 204.150,101.220 204.295,101.000 204.091 C 100.780 203.887,99.790 203.409,98.800 203.030 C 97.810 202.650,97.180 202.505,97.400 202.709 M134.799 205.062 C 132.518 207.660,133.199 208.953,141.347 217.485 C 143.298 219.528,145.022 221.200,145.179 221.200 C 145.335 221.200,144.087 219.805,142.405 218.100 C 134.140 209.720,132.967 207.690,134.996 205.278 C 137.304 202.535,138.463 203.080,145.173 210.070 C 152.449 217.650,165.162 227.757,172.000 231.398 C 173.494 232.193,171.437 230.690,166.817 227.610 C 157.419 221.346,153.746 218.297,145.792 210.157 C 138.320 202.512,137.409 202.090,134.799 205.062 M311.000 204.378 C 310.120 204.795,309.513 205.150,309.651 205.168 C 310.040 205.218,312.800 204.014,312.800 203.795 C 312.800 203.527,312.799 203.527,311.000 204.378 M297.333 204.722 C 296.416 205.095,295.516 205.551,295.333 205.736 C 294.912 206.160,298.466 204.799,298.980 204.340 C 299.493 203.881,299.280 203.931,297.333 204.722 M102.600 205.018 C 106.793 206.998,111.290 208.843,111.474 208.659 C 111.558 208.576,111.035 208.272,110.313 207.983 C 109.591 207.694,108.100 207.058,107.000 206.570 C 103.843 205.167,101.923 204.398,101.651 204.426 C 101.513 204.440,101.940 204.706,102.600 205.018 M254.520 207.200 C 254.520 208.410,254.595 208.905,254.687 208.300 C 254.778 207.695,254.778 206.705,254.687 206.100 C 254.595 205.495,254.520 205.990,254.520 207.200 M308.400 205.490 C 308.070 205.615,306.670 206.231,305.290 206.859 C 303.909 207.486,302.615 208.000,302.414 208.000 C 302.212 208.000,301.936 208.179,301.801 208.399 C 301.515 208.862,302.556 208.501,305.835 207.001 C 307.039 206.450,308.188 206.000,308.388 206.000 C 308.589 206.000,308.864 205.820,309.000 205.600 C 309.271 205.162,309.268 205.162,308.400 205.490 M91.654 205.787 C 91.990 206.123,94.800 207.216,94.800 207.011 C 94.800 206.901,94.148 206.538,93.351 206.205 C 91.875 205.589,91.318 205.451,91.654 205.787 M171.000 206.528 C 172.306 207.625,174.400 208.948,174.400 208.676 C 174.400 208.507,171.563 206.507,170.408 205.860 C 170.073 205.673,170.340 205.974,171.000 206.528 M293.200 206.505 C 290.960 207.516,287.320 209.091,286.087 209.583 C 285.365 209.872,284.842 210.176,284.926 210.259 C 285.080 210.414,286.483 209.874,290.400 208.152 C 293.925 206.602,295.027 206.051,294.600 206.053 C 294.380 206.053,293.750 206.257,293.200 206.505 M96.200 207.818 C 96.860 208.129,98.390 208.818,99.600 209.347 C 100.810 209.877,102.654 210.695,103.699 211.165 C 106.742 212.534,107.675 212.845,107.399 212.399 C 107.264 212.179,106.989 212.000,106.788 212.000 C 106.588 212.000,105.473 211.570,104.312 211.045 C 98.063 208.219,95.619 207.188,95.251 207.226 C 95.113 207.240,95.540 207.506,96.200 207.818 M189.000 208.305 C 189.646 208.930,194.080 211.242,194.391 211.116 C 194.547 211.052,193.308 210.307,191.638 209.459 C 189.967 208.612,188.780 208.092,189.000 208.305 M112.200 209.109 C 112.420 209.313,113.410 209.791,114.400 210.170 C 115.390 210.550,116.020 210.695,115.800 210.491 C 115.580 210.287,114.590 209.809,113.600 209.430 C 112.610 209.050,111.980 208.905,112.200 209.109 M176.145 209.840 C 177.603 210.831,182.752 213.844,186.948 216.162 C 188.019 216.753,188.964 217.169,189.047 217.086 C 189.131 217.003,188.704 216.679,188.099 216.367 C 185.809 215.185,177.467 210.360,176.395 209.597 C 175.780 209.159,175.128 208.800,174.945 208.800 C 174.763 208.800,175.303 209.268,176.145 209.840 M299.300 209.434 C 298.585 209.746,298.000 210.094,298.000 210.207 C 298.000 210.415,300.806 209.327,301.146 208.987 C 301.486 208.647,300.620 208.857,299.300 209.434 M281.683 211.469 C 280.298 212.035,279.235 212.568,279.320 212.653 C 279.506 212.839,283.640 211.205,284.180 210.733 C 284.730 210.251,284.478 210.325,281.683 211.469 M295.000 211.391 C 293.900 211.909,293.180 212.337,293.400 212.342 C 293.620 212.347,294.700 211.927,295.800 211.409 C 296.900 210.891,297.620 210.463,297.400 210.458 C 297.180 210.453,296.100 210.873,295.000 211.391 M117.600 211.405 C 117.600 211.506,118.275 211.869,119.100 212.212 C 119.925 212.554,121.455 213.219,122.500 213.688 L 124.400 214.543 124.400 216.871 C 124.400 219.645,124.059 219.765,120.635 218.199 C 117.356 216.699,116.315 216.338,116.601 216.801 C 116.736 217.021,117.012 217.200,117.214 217.200 C 117.415 217.200,118.759 217.740,120.200 218.400 C 124.346 220.299,124.800 220.159,124.800 216.987 L 124.800 214.374 122.278 213.207 C 119.162 211.765,117.600 211.163,117.600 211.405 M292.000 212.690 C 291.670 212.815,290.270 213.431,288.890 214.059 C 287.509 214.686,286.215 215.200,286.014 215.200 C 285.812 215.200,285.536 215.379,285.401 215.599 C 285.115 216.062,286.156 215.701,289.435 214.201 C 290.639 213.650,291.788 213.200,291.988 213.200 C 292.189 213.200,292.464 213.020,292.600 212.800 C 292.871 212.362,292.868 212.362,292.000 212.690 M108.054 212.987 C 108.390 213.323,111.200 214.416,111.200 214.211 C 111.200 214.101,110.548 213.738,109.751 213.405 C 108.275 212.789,107.718 212.651,108.054 212.987 M277.608 213.246 C 275.251 214.187,274.109 218.197,275.800 219.600 C 276.478 220.163,276.629 219.589,275.976 218.936 C 274.958 217.918,275.716 214.642,277.132 213.935 C 279.184 212.910,279.464 212.506,277.608 213.246 M112.800 214.989 C 112.800 215.306,115.700 216.433,115.928 216.205 C 116.041 216.092,116.035 216.000,115.916 216.000 C 115.796 216.000,115.046 215.728,114.249 215.395 C 113.452 215.062,112.800 214.879,112.800 214.989 M282.900 216.634 C 282.185 216.946,281.600 217.294,281.600 217.407 C 281.600 217.615,284.406 216.527,284.746 216.187 C 285.086 215.847,284.220 216.057,282.900 216.634 M191.776 218.570 C 192.204 218.917,192.924 219.185,193.376 219.166 C 194.037 219.138,193.989 219.067,193.131 218.809 C 192.544 218.631,191.824 218.363,191.531 218.213 C 191.239 218.063,191.349 218.224,191.776 218.570 M278.200 218.778 C 277.320 219.195,276.713 219.550,276.851 219.568 C 277.240 219.618,280.000 218.414,280.000 218.195 C 280.000 217.927,279.999 217.927,278.200 218.778 M147.600 223.254 C 154.495 230.051,174.186 242.658,183.300 246.110 C 185.268 246.855,183.488 245.833,179.300 243.812 C 172.898 240.723,168.483 238.170,161.400 233.465 C 155.416 229.489,153.897 228.348,148.600 223.854 C 146.591 222.150,146.308 221.980,147.600 223.254 M173.800 232.321 C 174.371 232.898,177.266 234.467,177.439 234.294 C 177.519 234.214,176.643 233.647,175.492 233.033 C 174.342 232.419,173.580 232.099,173.800 232.321 M236.500 232.276 C 236.885 232.376,237.515 232.376,237.900 232.276 C 238.285 232.175,237.970 232.093,237.200 232.093 C 236.430 232.093,236.115 232.175,236.500 232.276 M178.000 234.599 C 178.000 234.864,186.848 239.285,187.025 239.108 C 187.103 239.031,185.104 237.940,182.583 236.686 C 180.062 235.431,178.000 234.492,178.000 234.599 M187.600 239.431 C 187.600 239.701,189.678 240.456,189.876 240.257 C 189.967 240.167,189.492 239.901,188.820 239.667 C 188.149 239.433,187.600 239.327,187.600 239.431 M186.175 247.421 C 187.261 247.959,188.341 248.394,188.575 248.386 C 189.095 248.368,185.162 246.447,184.600 246.444 C 184.380 246.443,185.089 246.883,186.175 247.421 M240.105 251.887 C 240.714 251.979,241.614 251.977,242.105 251.882 C 242.597 251.787,242.100 251.711,241.000 251.714 C 239.900 251.717,239.497 251.795,240.105 251.887 " stroke="none" fill="#e4c39e" fill-rule="evenodd"></path></g></svg>