<svg id="svg" version="1.1" xmlns="http://www.w3.org/2000/svg" xmlns:xlink="http://www.w3.org/1999/xlink" width="400" height="400" viewBox="0, 0, 400,400"><g id="svgg"><path id="path0" d="M189.648 41.239 C 182.165 41.842,173.588 43.107,170.313 44.090 C 169.561 44.315,167.451 44.872,165.625 45.326 C 163.799 45.780,161.723 46.490,161.013 46.904 C 160.302 47.318,159.415 47.656,159.040 47.656 C 158.666 47.656,158.192 47.800,157.988 47.976 C 157.784 48.151,156.650 48.514,155.469 48.781 C 154.287 49.048,152.617 49.497,151.758 49.778 C 150.898 50.059,149.404 50.520,148.438 50.802 C 146.025 51.505,137.801 55.792,136.643 56.951 C 136.384 57.210,136.023 57.422,135.842 57.422 C 135.661 57.422,134.357 58.213,132.945 59.180 C 131.533 60.146,130.068 60.938,129.690 60.938 C 129.312 60.938,128.785 61.198,128.521 61.517 C 128.256 61.836,127.267 62.483,126.323 62.955 C 125.379 63.426,124.263 64.132,123.843 64.523 C 123.423 64.914,122.968 65.234,122.832 65.234 C 122.696 65.234,121.866 65.850,120.988 66.602 C 120.109 67.354,119.235 67.969,119.045 67.969 C 118.033 67.969,104.445 80.759,101.425 84.554 C 100.749 85.405,99.360 86.977,98.340 88.049 C 97.319 89.121,96.481 90.183,96.478 90.409 C 96.474 90.635,96.055 91.214,95.547 91.696 C 95.039 92.177,94.331 93.144,93.973 93.844 C 93.615 94.544,92.374 96.436,91.215 98.047 C 90.056 99.658,88.546 102.031,87.861 103.320 C 87.176 104.609,86.134 106.367,85.546 107.227 C 84.958 108.086,83.870 110.020,83.129 111.523 C 81.310 115.211,76.201 125.420,75.752 126.264 C 75.553 126.637,75.391 127.231,75.391 127.583 C 75.391 127.935,74.885 129.218,74.267 130.434 C 73.649 131.650,73.019 133.385,72.866 134.289 C 72.713 135.194,72.428 136.033,72.232 136.154 C 72.035 136.275,71.875 136.793,71.875 137.305 C 71.875 137.816,71.699 138.344,71.484 138.477 C 71.270 138.609,71.094 139.179,71.094 139.741 C 71.094 140.710,70.756 142.062,69.847 144.727 C 69.222 146.561,68.699 149.219,68.504 151.563 C 68.405 152.744,68.163 154.063,67.965 154.492 C 67.768 154.922,67.523 156.504,67.421 158.008 C 67.318 159.512,67.039 162.588,66.800 164.844 C 66.152 170.952,66.439 194.750,67.179 196.289 C 67.871 197.727,70.536 200.391,71.282 200.391 C 71.583 200.391,71.938 200.566,72.070 200.781 C 72.203 200.996,72.730 201.172,73.242 201.172 C 73.754 201.172,74.281 201.348,74.414 201.563 C 74.574 201.822,116.630 201.951,199.339 201.946 L 324.023 201.939 325.781 200.806 C 330.848 197.539,330.664 198.423,330.664 177.344 C 330.664 167.524,330.505 159.221,330.309 158.789 C 330.114 158.359,329.897 156.865,329.827 155.469 C 329.678 152.488,328.334 146.082,327.303 143.439 C 327.111 142.945,326.953 142.196,326.953 141.773 C 326.953 141.351,326.793 140.700,326.597 140.327 C 326.402 139.954,325.764 138.066,325.180 136.133 C 324.185 132.836,323.773 131.772,321.774 127.344 C 321.338 126.377,320.767 125.059,320.506 124.414 C 320.245 123.770,319.831 122.759,319.586 122.168 C 319.341 121.577,318.991 120.698,318.807 120.215 C 318.321 118.934,316.931 116.001,316.168 114.648 C 315.012 112.598,314.900 112.384,312.675 108.008 C 311.473 105.645,310.240 103.570,309.933 103.399 C 309.626 103.227,309.375 102.932,309.375 102.744 C 309.375 102.165,305.477 96.000,303.966 94.189 C 301.673 91.441,299.609 88.737,299.609 88.482 C 299.609 88.352,299.214 87.833,298.730 87.327 C 298.247 86.822,295.566 84.001,292.773 81.057 C 289.980 78.113,287.344 75.381,286.914 74.987 C 283.251 71.624,282.065 70.587,281.007 69.824 C 280.337 69.341,278.843 68.204,277.687 67.299 C 276.531 66.393,275.073 65.250,274.446 64.760 C 273.819 64.269,272.764 63.589,272.102 63.249 C 269.863 62.099,267.843 60.881,266.597 59.931 C 265.914 59.410,265.229 58.984,265.074 58.984 C 264.919 58.984,264.232 58.569,263.548 58.061 C 261.500 56.540,255.914 53.530,252.343 52.023 C 247.536 49.994,246.589 49.629,244.531 49.012 C 243.350 48.658,241.768 48.090,241.016 47.749 C 240.264 47.409,239.033 47.002,238.281 46.845 C 237.529 46.688,235.859 46.260,234.570 45.894 C 233.281 45.528,231.696 45.099,231.049 44.942 C 230.401 44.784,229.258 44.378,228.510 44.040 C 227.761 43.702,226.621 43.342,225.977 43.241 C 225.332 43.139,223.838 42.864,222.656 42.630 C 214.720 41.056,199.743 40.425,189.648 41.239 M204.556 63.379 C 204.724 63.647,204.791 75.293,204.705 89.258 C 204.474 126.929,204.466 161.421,204.688 165.613 C 204.935 170.303,204.475 170.542,201.744 167.144 C 199.643 164.530,194.318 158.546,190.963 155.030 C 189.810 153.821,187.436 151.273,185.687 149.366 C 182.610 146.010,166.979 130.309,143.294 106.783 C 129.551 93.133,126.953 90.459,126.953 89.968 C 126.953 89.762,128.459 88.571,130.300 87.320 C 132.141 86.070,133.886 84.808,134.179 84.516 C 134.471 84.223,134.802 83.984,134.915 83.984 C 135.027 83.984,137.896 82.201,141.290 80.020 C 150.863 73.871,158.598 69.922,161.071 69.922 C 161.402 69.922,161.772 69.761,161.893 69.565 C 162.144 69.159,167.490 67.464,170.703 66.772 C 171.885 66.518,173.291 66.168,173.828 65.995 C 174.365 65.822,176.650 65.398,178.906 65.054 C 181.162 64.710,183.757 64.258,184.674 64.050 C 185.590 63.842,188.051 63.660,190.142 63.644 C 192.234 63.629,194.297 63.466,194.727 63.281 C 196.014 62.728,204.200 62.809,204.556 63.379 M236.058 68.878 C 236.958 69.378,238.047 69.889,238.477 70.014 C 242.970 71.313,248.129 73.615,253.045 76.515 C 254.182 77.186,255.214 77.734,255.339 77.734 C 255.463 77.734,256.642 78.481,257.958 79.395 C 259.275 80.308,260.977 81.372,261.742 81.760 C 262.507 82.148,263.650 82.894,264.282 83.418 C 267.402 86.007,267.969 86.549,267.969 86.945 C 267.969 87.181,268.388 87.565,268.899 87.799 C 271.217 88.855,280.051 97.923,284.570 103.885 C 285.430 105.019,286.309 106.147,286.523 106.391 C 287.478 107.478,289.000 109.673,289.581 110.803 C 289.931 111.481,290.440 112.272,290.714 112.561 C 291.344 113.225,293.359 116.314,293.359 116.616 C 293.359 116.740,294.150 117.973,295.117 119.357 C 296.084 120.740,296.875 122.038,296.875 122.242 C 296.875 122.446,297.469 123.809,298.195 125.271 C 298.920 126.733,299.736 128.633,300.007 129.492 C 300.277 130.352,301.090 132.410,301.812 134.067 C 302.534 135.724,303.125 137.224,303.125 137.402 C 303.125 137.580,303.477 138.415,303.906 139.258 C 304.336 140.101,304.688 141.182,304.688 141.661 C 304.688 142.140,304.843 142.628,305.034 142.746 C 305.224 142.864,305.504 143.621,305.655 144.429 C 305.806 145.237,306.066 146.074,306.233 146.289 C 306.557 146.708,306.858 147.869,307.444 150.977 C 307.647 152.051,307.997 153.809,308.223 154.883 C 309.657 161.711,310.517 178.312,309.489 179.339 C 309.283 179.545,293.345 179.650,271.169 179.592 L 233.201 179.492 233.030 149.023 C 232.759 100.782,232.751 68.774,233.010 68.355 C 233.389 67.743,234.293 67.898,236.058 68.878 M167.773 81.587 C 161.586 83.359,155.078 89.624,155.078 93.807 C 155.078 94.120,154.890 94.563,154.660 94.793 C 153.844 95.609,154.555 103.835,155.771 107.640 C 156.701 110.553,160.905 115.543,163.477 116.787 C 164.121 117.099,165.088 117.634,165.625 117.975 C 171.057 121.427,180.568 120.177,185.776 115.327 C 194.442 107.258,194.780 93.881,186.512 86.130 C 181.360 81.299,174.544 79.647,167.773 81.587 M248.438 98.828 C 248.115 99.017,247.412 99.264,246.875 99.377 C 237.910 101.254,235.331 114.614,242.876 120.093 C 252.689 127.220,267.577 118.749,264.329 107.888 C 262.607 102.132,252.561 96.404,248.438 98.828 M114.354 116.016 C 122.332 123.798,125.546 126.812,128.516 129.294 C 131.896 132.119,135.348 135.388,139.420 139.617 C 148.449 148.998,172.089 172.305,175.195 174.890 C 179.040 178.090,179.767 178.852,179.457 179.354 C 179.112 179.912,88.918 179.777,88.359 179.219 C 87.396 178.256,88.371 158.663,89.485 156.580 C 89.683 156.212,89.844 155.374,89.844 154.717 C 89.844 154.061,90.195 152.599,90.625 151.469 C 91.054 150.339,91.406 148.980,91.406 148.451 C 91.406 147.921,91.660 146.778,91.970 145.911 C 92.280 145.045,92.924 143.018,93.399 141.406 C 93.875 139.795,94.412 138.310,94.593 138.105 C 94.774 137.901,94.922 137.424,94.922 137.045 C 94.922 136.665,95.173 135.777,95.479 135.072 C 95.786 134.366,96.649 132.200,97.398 130.259 C 98.730 126.805,104.845 114.568,107.308 110.428 C 107.719 109.736,108.780 110.578,114.354 116.016 M118.750 136.723 C 118.213 136.893,117.271 137.049,116.657 137.070 C 110.261 137.294,103.529 145.169,102.631 153.478 C 102.249 157.020,102.309 157.765,103.343 162.305 C 103.988 165.137,106.496 169.724,107.935 170.703 C 108.724 171.240,109.371 171.812,109.372 171.973 C 109.374 172.134,109.566 172.266,109.799 172.266 C 110.033 172.266,110.984 172.811,111.913 173.479 C 116.330 176.651,127.085 176.624,133.398 173.426 C 137.265 171.467,142.188 164.629,142.188 161.216 C 142.188 160.791,142.394 159.754,142.646 158.912 C 143.192 157.090,142.182 150.565,140.905 147.656 C 138.197 141.492,132.939 138.201,124.023 137.090 C 122.305 136.876,120.635 136.636,120.313 136.557 C 119.990 136.479,119.287 136.553,118.750 136.723 M252.420 138.651 C 251.710 138.828,250.248 139.520,249.171 140.189 C 248.095 140.859,247.068 141.406,246.890 141.406 C 244.533 141.406,242.939 149.614,244.648 152.949 C 250.166 163.720,265.190 161.061,264.992 149.348 C 264.871 142.203,258.821 137.054,252.420 138.651 M281.698 144.674 C 275.086 147.067,274.312 158.525,280.533 161.912 C 287.436 165.668,295.308 161.553,295.311 154.186 C 295.315 146.706,288.753 142.120,281.698 144.674 M70.445 230.434 C 69.766 230.853,69.085 231.604,68.932 232.102 C 68.779 232.600,68.485 233.220,68.278 233.479 C 67.847 234.018,67.811 333.110,68.241 334.255 C 68.881 335.960,68.463 335.935,95.898 335.900 C 110.293 335.882,122.246 335.727,122.461 335.558 C 122.676 335.388,123.467 335.150,124.219 335.029 C 127.562 334.491,130.983 333.619,133.594 332.639 C 134.561 332.276,135.703 331.875,136.133 331.747 C 136.563 331.619,137.002 331.411,137.109 331.284 C 137.217 331.158,138.447 330.483,139.844 329.784 C 142.589 328.410,144.321 327.421,145.286 326.677 C 148.254 324.389,149.461 323.343,152.413 320.502 C 154.277 318.708,156.453 316.217,157.248 314.968 C 158.044 313.718,158.848 312.637,159.035 312.565 C 159.222 312.493,159.375 312.267,159.375 312.061 C 159.375 311.855,159.719 311.211,160.140 310.629 C 160.561 310.047,161.188 308.691,161.534 307.617 C 161.880 306.543,162.499 304.927,162.909 304.025 C 163.320 303.124,163.762 301.630,163.892 300.705 C 164.022 299.780,164.499 297.354,164.952 295.313 C 165.888 291.096,166.170 274.640,165.345 272.415 C 165.115 271.796,164.718 270.234,164.462 268.945 C 163.382 263.499,161.547 258.222,159.845 255.664 C 159.273 254.805,158.571 253.662,158.284 253.125 C 156.513 249.803,151.764 244.571,148.047 241.846 C 146.865 240.980,145.698 240.099,145.454 239.888 C 143.768 238.433,137.311 234.733,136.328 234.659 C 136.221 234.651,135.562 234.405,134.863 234.114 C 134.165 233.822,133.594 233.695,133.594 233.832 C 133.594 233.968,133.374 233.912,133.105 233.707 C 132.837 233.502,131.563 233.114,130.273 232.845 C 128.984 232.576,127.578 232.264,127.148 232.151 C 125.857 231.813,117.730 230.666,113.672 230.249 C 106.421 229.504,71.713 229.652,70.445 230.434 M186.035 229.920 C 185.406 230.208,185.309 330.666,185.938 331.055 C 186.152 331.187,186.328 331.989,186.328 332.836 C 186.328 333.682,186.504 334.375,186.719 334.375 C 186.934 334.375,187.109 334.620,187.109 334.919 C 187.109 335.835,188.056 335.938,196.471 335.938 L 204.598 335.938 205.245 334.950 C 206.396 333.192,206.470 329.809,206.429 280.664 C 206.388 231.507,206.384 231.375,205.137 230.596 C 204.390 230.130,186.928 229.511,186.035 229.920 M233.594 230.018 C 231.342 230.371,230.859 230.692,230.859 231.836 C 230.859 232.348,230.684 232.875,230.469 233.008 C 229.956 233.325,229.927 332.931,230.440 333.892 C 230.639 334.265,230.898 334.878,231.014 335.254 C 231.207 335.878,231.986 335.938,240.027 335.938 L 248.828 335.938 248.828 302.031 C 248.828 279.230,248.696 267.993,248.425 267.722 C 247.704 267.001,248.444 266.016,249.706 266.016 C 250.915 266.016,251.918 266.894,251.941 267.974 C 251.948 268.299,252.412 268.909,252.972 269.330 C 253.533 269.751,254.154 270.452,254.353 270.888 C 255.283 272.925,258.926 278.876,259.852 279.870 C 260.252 280.300,261.038 281.445,261.599 282.415 C 262.160 283.386,263.910 286.054,265.489 288.344 C 267.068 290.635,268.359 292.614,268.359 292.743 C 268.359 292.871,268.944 293.810,269.659 294.828 C 270.374 295.847,271.979 298.162,273.225 299.973 C 274.472 301.785,275.660 303.455,275.865 303.684 C 276.070 303.914,277.463 305.947,278.959 308.203 C 282.089 312.920,284.200 316.005,284.764 316.683 C 284.980 316.942,285.156 317.284,285.156 317.443 C 285.156 317.601,285.579 318.180,286.096 318.729 C 286.613 319.277,287.600 320.781,288.290 322.070 C 290.435 326.075,292.237 328.579,295.671 332.324 L 298.984 335.938 308.770 335.932 C 314.170 335.928,318.814 335.762,319.134 335.560 C 319.640 335.239,319.713 328.647,319.719 282.733 L 319.727 230.273 310.245 230.169 L 300.762 230.064 300.960 260.052 C 301.180 293.531,301.436 305.816,301.925 306.425 C 302.630 307.302,302.805 310.002,302.190 310.512 C 301.462 311.116,300.376 310.940,299.993 310.156 C 299.835 309.834,299.333 308.807,298.877 307.873 C 298.420 306.940,298.047 305.599,298.047 304.894 C 298.047 304.188,297.783 303.392,297.461 303.125 C 297.139 302.858,296.875 302.397,296.875 302.101 C 296.875 301.805,296.699 301.563,296.484 301.563 C 296.270 301.563,296.094 301.371,296.094 301.136 C 296.094 300.704,294.301 297.978,290.981 293.359 C 289.977 291.963,288.715 289.941,288.176 288.867 C 287.120 286.765,282.331 279.401,279.539 275.586 C 278.595 274.297,277.513 272.627,277.135 271.875 C 276.421 270.455,274.373 267.395,270.337 261.719 C 269.038 259.893,267.491 257.635,266.898 256.702 C 266.305 255.769,265.161 254.111,264.355 253.018 C 263.550 251.925,262.891 250.900,262.891 250.740 C 262.891 250.580,261.440 248.314,259.668 245.704 C 257.896 243.093,256.031 240.224,255.524 239.327 C 255.017 238.429,254.122 237.080,253.534 236.328 C 252.946 235.576,252.190 234.434,251.855 233.789 C 251.194 232.516,249.873 231.192,248.625 230.552 C 247.653 230.053,236.007 229.639,233.594 230.018 M112.305 246.512 C 115.650 247.008,118.683 247.645,119.727 248.070 C 120.156 248.245,120.947 248.511,121.484 248.662 C 122.021 248.812,123.564 249.438,124.912 250.053 C 126.260 250.669,127.587 251.172,127.860 251.172 C 128.383 251.172,133.101 253.985,134.766 255.289 C 137.795 257.663,141.406 262.323,141.406 263.859 C 141.406 264.519,142.550 268.362,143.005 269.233 C 143.200 269.606,143.359 270.353,143.359 270.893 C 143.359 271.433,143.519 271.875,143.714 271.875 C 144.913 271.875,144.917 293.468,143.718 294.707 C 143.521 294.911,143.359 295.570,143.359 296.172 C 143.359 296.773,143.184 297.266,142.969 297.266 C 142.754 297.266,142.578 297.877,142.578 298.625 C 142.578 302.430,136.583 310.844,132.363 312.961 C 130.876 313.707,125.300 316.263,123.828 316.874 C 123.291 317.096,122.559 317.426,122.202 317.606 C 121.845 317.786,120.654 318.052,119.557 318.198 C 118.459 318.343,117.466 318.615,117.351 318.801 C 117.236 318.988,116.547 319.141,115.820 319.141 C 115.094 319.141,114.391 319.316,114.258 319.531 C 114.105 319.778,109.569 319.922,101.939 319.922 L 89.862 319.922 89.211 318.929 C 88.611 318.014,88.581 315.218,88.816 283.211 C 89.081 247.266,89.119 246.227,90.182 245.994 C 91.522 245.700,109.699 246.126,112.305 246.512 " stroke="none" fill="#fcd229" fill-rule="evenodd"></path><path id="path1" d="M196.270 64.017 C 196.187 64.100,193.696 64.310,190.735 64.484 C 184.114 64.873,179.913 65.473,173.047 67.010 C 171.436 67.371,169.678 67.749,169.141 67.849 C 168.604 67.950,167.900 68.131,167.578 68.252 C 164.715 69.329,161.613 70.445,160.156 70.924 C 157.257 71.878,151.822 74.286,150.826 75.058 C 150.314 75.456,149.738 75.781,149.547 75.781 C 149.196 75.781,145.941 77.855,144.141 79.225 C 143.604 79.634,142.461 80.336,141.602 80.785 C 140.742 81.234,138.536 82.621,136.698 83.867 C 134.861 85.113,132.184 86.924,130.749 87.891 C 129.315 88.857,128.138 89.866,128.133 90.132 C 128.126 90.547,155.288 117.953,160.196 122.484 C 161.141 123.356,163.865 126.081,166.249 128.539 C 168.634 130.997,172.061 134.439,173.867 136.189 C 178.327 140.513,193.875 156.815,198.047 161.543 C 198.799 162.396,200.111 163.958,200.962 165.015 C 201.814 166.072,202.933 167.389,203.449 167.941 L 204.387 168.945 204.049 166.016 C 203.716 163.131,203.761 101.234,204.114 76.686 C 204.283 64.969,204.249 64.100,203.612 63.900 C 202.876 63.668,196.519 63.770,196.270 64.017 M233.592 81.348 C 233.591 88.276,233.562 99.307,233.527 105.859 C 233.492 112.412,233.485 130.957,233.511 147.070 C 233.537 163.184,233.523 176.895,233.479 177.539 L 233.398 178.711 271.289 178.711 L 309.180 178.711 309.088 171.484 C 308.991 163.892,308.805 161.988,307.442 154.688 C 306.558 149.948,305.967 147.453,305.501 146.484 C 305.346 146.162,304.818 144.580,304.328 142.969 C 303.838 141.357,303.210 139.512,302.932 138.867 C 302.654 138.223,302.254 137.256,302.044 136.719 C 301.833 136.182,301.304 134.951,300.867 133.984 C 300.429 133.018,299.778 131.260,299.420 130.078 C 298.779 127.966,295.919 121.891,294.612 119.866 C 294.245 119.299,293.154 117.609,292.188 116.111 C 290.660 113.743,287.433 108.954,285.281 105.859 C 284.908 105.322,284.068 104.254,283.414 103.485 C 282.761 102.717,281.523 101.227,280.664 100.176 C 278.802 97.897,272.696 91.767,270.372 89.844 C 269.464 89.092,268.156 87.889,267.466 87.171 C 265.879 85.521,261.810 82.440,260.614 81.984 C 260.114 81.793,258.620 80.871,257.294 79.935 C 255.968 78.999,253.389 77.470,251.563 76.536 C 249.736 75.602,247.979 74.640,247.656 74.398 C 247.334 74.155,246.455 73.734,245.703 73.462 C 244.951 73.191,243.984 72.831,243.555 72.663 C 240.570 71.498,237.225 70.311,236.904 70.304 C 236.695 70.299,236.084 69.951,235.547 69.531 C 233.568 67.984,233.594 67.830,233.592 81.348 M178.568 80.713 C 194.872 85.654,198.548 106.278,185.034 116.992 C 174.887 125.036,157.693 118.835,154.660 106.038 C 154.407 104.973,154.046 103.698,153.858 103.204 C 152.956 100.840,153.613 94.289,155.032 91.499 C 155.222 91.126,155.616 90.293,155.907 89.648 C 156.589 88.137,161.563 83.159,163.086 82.463 C 165.588 81.319,167.907 80.534,169.336 80.348 C 172.363 79.954,176.618 80.122,178.568 80.713 M257.371 99.415 C 264.021 102.909,267.536 110.270,264.700 114.763 C 264.134 115.658,263.672 116.503,263.672 116.640 C 263.672 116.777,263.122 117.527,262.451 118.308 C 251.745 130.747,231.820 119.344,238.993 104.883 C 242.157 98.503,250.764 95.943,257.371 99.415 M107.267 112.248 C 101.619 122.042,93.750 139.995,93.750 143.086 C 93.750 143.416,93.398 144.505,92.969 145.508 C 92.539 146.510,92.188 147.721,92.188 148.199 C 92.188 148.676,91.855 150.112,91.449 151.389 C 90.457 154.507,89.498 159.968,89.189 164.258 C 88.744 170.449,88.618 178.227,88.958 178.567 C 89.325 178.935,177.711 179.060,178.077 178.694 C 178.204 178.566,177.926 178.167,177.458 177.805 C 172.922 174.304,155.326 157.000,137.377 138.388 C 136.180 137.147,130.475 131.935,128.906 130.650 C 127.939 129.858,126.885 128.978,126.563 128.694 C 125.077 127.385,116.446 119.042,113.934 116.487 C 112.393 114.920,110.422 113.049,109.554 112.329 L 107.975 111.019 107.267 112.248 M277.522 123.680 C 278.419 124.024,279.383 126.065,279.088 126.995 C 278.607 128.513,275.577 129.019,274.447 127.771 C 272.634 125.768,274.946 122.692,277.522 123.680 M193.271 133.531 C 194.439 134.272,190.802 135.992,183.752 138.034 C 177.169 139.940,177.641 138.868,184.570 136.174 C 185.859 135.673,187.266 135.120,187.695 134.946 C 188.584 134.586,192.282 133.301,192.578 133.249 C 192.686 133.230,192.997 133.357,193.271 133.531 M124.414 136.331 C 125.918 136.535,127.947 136.869,128.924 137.074 C 131.067 137.524,136.684 140.283,137.500 141.287 C 147.564 153.670,144.293 170.492,130.859 175.433 C 126.274 177.120,114.323 176.588,112.191 174.602 C 111.797 174.234,111.046 173.706,110.522 173.427 C 107.137 171.626,102.734 165.568,102.734 162.711 C 102.734 162.251,102.515 161.655,102.246 161.386 C 101.156 160.295,101.705 151.370,103.080 147.819 C 104.994 142.878,109.936 138.188,114.648 136.840 C 117.879 135.916,119.370 135.653,120.508 135.804 C 121.152 135.890,122.910 136.127,124.414 136.331 M257.457 138.024 C 267.566 141.099,268.975 154.821,259.649 159.371 C 253.553 162.345,246.930 159.607,243.725 152.789 C 240.078 145.030,248.990 135.448,257.457 138.024 M291.069 144.793 C 296.756 148.687,298.036 156.120,293.803 160.679 C 288.802 166.066,278.874 164.668,276.617 158.259 C 276.228 157.153,275.792 156.131,275.650 155.988 C 275.507 155.846,275.391 154.622,275.391 153.269 C 275.391 145.453,284.690 140.426,291.069 144.793 " stroke="none" fill="#fb3e15" fill-rule="evenodd"></path><path id="path2" d="M193.811 63.448 C 192.378 63.833,193.060 63.879,198.206 63.741 C 203.182 63.607,204.299 63.675,204.308 64.113 C 204.314 64.407,204.309 75.977,204.297 89.822 C 204.285 103.667,204.353 114.917,204.448 114.822 C 204.762 114.507,204.868 63.878,204.556 63.379 C 204.162 62.749,196.223 62.800,193.811 63.448 M184.570 64.067 C 183.926 64.241,181.465 64.675,179.102 65.032 C 174.530 65.723,173.285 65.993,173.533 66.241 C 173.618 66.326,175.081 66.121,176.785 65.786 C 178.489 65.450,182.607 64.856,185.938 64.466 C 191.438 63.822,191.706 63.757,188.867 63.754 C 187.148 63.753,185.215 63.894,184.570 64.067 M170.508 66.797 C 169.796 67.103,169.813 67.133,170.703 67.133 C 171.240 67.133,172.031 66.982,172.461 66.797 C 173.173 66.491,173.156 66.461,172.266 66.461 C 171.729 66.461,170.938 66.612,170.508 66.797 M165.625 68.027 C 164.443 68.431,163.037 68.971,162.500 69.226 C 161.963 69.481,160.908 69.899,160.156 70.155 C 159.404 70.411,159.102 70.640,159.485 70.662 C 159.868 70.685,160.835 70.418,161.634 70.070 C 162.432 69.721,164.580 68.937,166.406 68.327 C 168.232 67.717,169.287 67.234,168.750 67.254 C 168.213 67.275,166.807 67.622,165.625 68.027 M233.015 68.348 C 232.739 68.794,232.740 135.995,233.015 136.271 C 233.119 136.374,233.203 121.136,233.203 102.409 C 233.203 64.520,232.974 67.430,235.814 69.185 C 236.549 69.639,237.237 69.925,237.342 69.819 C 237.590 69.571,234.523 67.969,233.800 67.969 C 233.497 67.969,233.144 68.139,233.015 68.348 M238.281 70.240 C 238.604 70.445,240.664 71.255,242.860 72.040 C 245.055 72.825,247.956 74.093,249.305 74.857 C 252.645 76.751,254.688 77.784,254.688 77.581 C 254.688 77.423,251.240 75.416,248.047 73.715 C 245.655 72.440,236.766 69.278,238.281 70.240 M154.688 72.239 C 150.941 73.894,149.928 74.482,141.290 80.025 C 137.896 82.203,135.027 83.984,134.915 83.984 C 134.802 83.984,134.471 84.223,134.179 84.516 C 133.886 84.808,132.141 86.070,130.300 87.320 C 128.459 88.571,126.953 89.762,126.953 89.968 C 126.953 90.459,129.551 93.133,143.294 106.783 C 166.979 130.309,182.610 146.010,185.687 149.366 C 187.436 151.273,189.810 153.821,190.963 155.030 C 194.314 158.542,199.642 164.529,201.733 167.131 C 204.720 170.848,205.372 170.379,204.752 164.962 L 204.359 161.523 204.426 165.196 C 204.512 169.944,204.390 169.932,200.195 164.757 C 198.262 162.372,194.922 158.564,192.773 156.296 C 190.625 154.027,187.109 150.320,184.961 148.058 C 181.000 143.888,149.903 112.753,145.288 108.336 C 143.905 107.013,141.526 104.640,140.001 103.063 C 138.476 101.486,136.103 99.105,134.727 97.772 C 131.197 94.352,127.653 90.495,127.643 90.064 C 127.633 89.628,131.855 86.593,137.500 82.979 C 139.756 81.535,143.271 79.279,145.313 77.966 C 147.354 76.653,149.375 75.357,149.805 75.087 C 150.234 74.817,151.729 74.072,153.125 73.431 C 157.286 71.524,158.812 70.751,158.398 70.762 C 158.184 70.768,156.514 71.433,154.688 72.239 M255.078 77.872 C 255.078 78.088,260.190 81.359,261.860 82.212 C 262.686 82.634,264.530 84.070,265.958 85.404 C 268.290 87.582,271.651 90.549,273.671 92.214 C 274.875 93.206,281.496 100.439,282.893 102.288 C 283.601 103.224,284.753 104.718,285.455 105.608 C 286.156 106.498,287.427 108.281,288.281 109.570 C 289.134 110.859,290.375 112.705,291.038 113.672 C 291.701 114.639,293.286 117.087,294.559 119.113 C 295.833 121.138,296.875 122.588,296.875 122.334 C 296.875 122.079,296.084 120.740,295.117 119.357 C 294.150 117.973,293.359 116.740,293.359 116.616 C 293.359 116.314,291.344 113.225,290.714 112.561 C 290.440 112.272,289.931 111.481,289.581 110.803 C 289.000 109.673,287.478 107.478,286.523 106.391 C 286.309 106.147,285.430 105.019,284.570 103.885 C 280.051 97.923,271.217 88.855,268.899 87.799 C 268.388 87.565,267.969 87.181,267.969 86.945 C 267.969 86.549,267.402 86.007,264.282 83.418 C 263.650 82.894,262.507 82.148,261.742 81.760 C 260.977 81.372,259.275 80.308,257.958 79.395 C 255.755 77.866,255.078 77.509,255.078 77.872 M167.969 81.090 C 162.619 82.511,158.437 85.713,156.170 90.127 C 154.696 92.997,153.995 95.155,154.672 94.736 C 154.895 94.598,155.078 94.205,155.078 93.862 C 155.078 91.055,160.157 84.795,163.867 83.031 C 171.927 79.198,180.348 80.350,186.512 86.130 C 188.516 88.009,189.508 89.411,191.211 92.773 C 191.755 93.848,192.092 94.287,191.960 93.750 C 191.267 90.922,187.377 85.918,183.825 83.284 C 180.568 80.869,172.835 79.799,167.969 81.090 M192.352 99.219 C 192.358 101.959,192.161 104.292,191.845 105.202 C 191.561 106.022,191.421 106.786,191.534 106.899 C 192.323 107.688,193.235 99.392,192.679 96.484 C 192.410 95.079,192.345 95.628,192.352 99.219 M153.994 98.633 C 153.962 100.721,154.172 102.942,154.511 104.102 C 155.026 105.868,155.059 105.905,154.852 104.492 C 154.726 103.633,154.494 101.172,154.336 99.023 L 154.047 95.117 153.994 98.633 M250.300 98.330 C 251.002 98.417,252.057 98.415,252.644 98.326 C 253.231 98.237,252.656 98.166,251.367 98.168 C 250.078 98.170,249.598 98.243,250.300 98.330 M247.461 98.828 C 246.708 99.152,246.710 99.165,247.536 99.191 C 248.006 99.206,248.500 99.043,248.633 98.828 C 248.918 98.366,248.536 98.366,247.461 98.828 M256.508 99.799 C 265.765 104.487,267.429 112.655,260.475 119.267 C 258.367 121.272,257.586 121.691,254.492 122.481 C 253.418 122.756,252.903 122.995,253.347 123.014 C 258.775 123.237,265.584 115.916,265.136 110.337 C 264.741 105.411,259.615 99.633,254.720 98.597 C 254.165 98.479,254.970 99.020,256.508 99.799 M244.141 100.229 C 241.002 102.016,239.003 104.572,238.514 107.422 C 238.245 108.992,238.851 107.962,239.220 106.222 C 239.599 104.436,241.986 101.785,244.390 100.482 C 245.649 99.798,246.504 99.237,246.289 99.234 C 246.074 99.231,245.107 99.679,244.141 100.229 M155.339 107.227 C 156.101 110.955,160.147 115.482,164.982 118.018 C 165.810 118.452,166.391 118.652,166.274 118.461 C 166.156 118.270,165.215 117.690,164.182 117.172 C 161.909 116.031,157.342 111.413,156.533 109.438 C 155.166 106.099,155.073 105.926,155.339 107.227 M190.688 108.415 C 190.034 109.852,190.159 110.158,190.867 108.852 C 191.197 108.242,191.394 107.670,191.305 107.581 C 191.216 107.492,190.938 107.867,190.688 108.415 M238.008 110.938 C 238.008 112.119,238.081 112.603,238.170 112.012 C 238.260 111.421,238.260 110.454,238.170 109.863 C 238.081 109.272,238.008 109.756,238.008 110.938 M106.099 112.641 C 105.323 114.030,104.688 115.257,104.688 115.368 C 104.688 115.478,104.048 116.642,103.267 117.953 C 102.486 119.264,101.938 120.427,102.048 120.538 C 102.265 120.755,103.109 119.321,105.287 115.039 C 106.051 113.535,107.004 111.873,107.404 111.346 L 108.131 110.388 113.733 115.899 C 121.272 123.315,123.156 125.097,126.367 127.847 C 127.871 129.135,129.395 130.472,129.755 130.817 C 130.114 131.163,131.754 132.676,133.399 134.180 C 135.045 135.684,137.636 138.232,139.158 139.844 C 145.153 146.191,171.506 172.189,175.098 175.299 C 177.192 177.113,178.906 178.754,178.906 178.947 C 178.906 179.653,88.790 179.386,88.518 178.679 C 88.104 177.600,88.278 169.928,88.849 164.063 C 89.371 158.693,89.582 157.448,90.829 152.350 C 91.117 151.171,91.297 150.151,91.228 150.082 C 90.979 149.833,89.844 153.686,89.844 154.783 C 89.844 155.403,89.683 156.212,89.485 156.580 C 88.371 158.663,87.396 178.256,88.359 179.219 C 88.918 179.777,179.112 179.912,179.457 179.354 C 179.767 178.852,179.040 178.090,175.195 174.890 C 172.089 172.305,148.449 148.998,139.420 139.617 C 135.348 135.388,131.896 132.119,128.516 129.294 C 125.546 126.812,122.332 123.798,114.354 116.016 C 107.463 109.293,107.877 109.463,106.099 112.641 M188.870 111.808 C 184.713 118.181,175.697 121.576,168.994 119.292 C 167.977 118.946,167.066 118.742,166.969 118.839 C 166.871 118.936,167.839 119.333,169.120 119.720 C 174.175 121.251,181.238 119.708,185.382 116.167 C 187.495 114.363,190.497 110.679,190.143 110.325 C 190.041 110.224,189.468 110.891,188.870 111.808 M238.336 113.672 C 238.336 113.994,238.487 114.609,238.672 115.039 C 238.883 115.531,239.008 115.604,239.008 115.234 C 239.008 114.912,238.857 114.297,238.672 113.867 C 238.460 113.375,238.336 113.303,238.336 113.672 M239.085 116.266 C 238.987 118.184,245.043 122.440,248.438 122.839 L 250.195 123.046 248.242 122.532 C 244.499 121.548,241.159 119.262,239.574 116.602 C 239.318 116.172,239.098 116.021,239.085 116.266 M204.414 118.750 C 204.414 119.932,204.487 120.415,204.577 119.824 C 204.666 119.233,204.666 118.267,204.577 117.676 C 204.487 117.085,204.414 117.568,204.414 118.750 M99.630 125.021 C 98.944 126.339,98.453 127.489,98.540 127.576 C 98.627 127.663,99.256 126.652,99.938 125.329 C 100.621 124.006,101.111 122.856,101.028 122.773 C 100.946 122.690,100.316 123.702,99.630 125.021 M296.875 123.165 C 296.875 123.302,297.218 124.078,297.636 124.890 C 298.055 125.703,298.587 126.875,298.819 127.496 C 299.051 128.116,299.337 128.528,299.454 128.411 C 299.571 128.293,299.116 127.086,298.442 125.728 C 297.216 123.257,296.875 122.699,296.875 123.165 M275.488 124.292 C 273.629 124.790,273.721 127.610,275.603 127.787 C 278.248 128.034,279.420 126.928,278.308 125.232 C 277.518 124.026,277.056 123.872,275.488 124.292 M97.103 130.955 C 96.515 132.514,95.764 134.433,95.434 135.220 C 95.104 136.007,94.907 136.871,94.997 137.140 C 95.087 137.409,95.531 136.501,95.984 135.123 C 96.437 133.745,97.181 131.671,97.637 130.516 C 98.093 129.360,98.400 128.348,98.319 128.267 C 98.238 128.186,97.691 129.396,97.103 130.955 M299.643 129.297 C 299.655 129.619,299.815 130.234,300.000 130.664 L 300.336 131.445 300.357 130.664 C 300.369 130.234,300.208 129.619,300.000 129.297 C 299.663 128.776,299.624 128.776,299.643 129.297 M300.404 131.754 C 300.397 131.924,300.742 132.751,301.172 133.594 C 301.602 134.436,301.953 135.319,301.953 135.556 C 301.953 135.792,302.363 136.898,302.865 138.012 C 303.366 139.127,304.377 141.871,305.111 144.111 C 305.845 146.350,306.504 147.880,306.575 147.510 C 306.647 147.140,306.531 146.626,306.317 146.368 C 306.104 146.110,305.806 145.237,305.655 144.429 C 305.504 143.621,305.224 142.864,305.034 142.746 C 304.843 142.628,304.688 142.158,304.688 141.702 C 304.688 141.245,304.358 140.157,303.956 139.283 C 303.554 138.410,302.842 136.729,302.375 135.547 C 301.467 133.249,300.427 131.247,300.404 131.754 M116.602 136.719 L 115.430 137.017 116.602 137.024 C 117.246 137.028,118.213 136.891,118.750 136.719 L 119.727 136.406 118.750 136.413 C 118.213 136.417,117.246 136.555,116.602 136.719 M120.315 136.454 C 120.424 136.567,122.006 136.843,123.831 137.068 C 132.738 138.167,138.838 141.894,140.775 147.419 C 140.917 147.826,141.131 148.062,141.249 147.944 C 142.920 146.272,132.669 137.513,129.029 137.502 C 128.560 137.501,127.769 137.347,127.272 137.161 C 126.243 136.774,120.013 136.142,120.315 136.454 M112.305 138.143 C 110.499 139.065,105.449 143.567,104.697 144.925 C 104.517 145.249,105.729 144.175,107.390 142.539 C 109.401 140.557,111.249 139.156,112.920 138.346 C 114.300 137.677,115.166 137.133,114.844 137.138 C 114.521 137.142,113.379 137.594,112.305 138.143 M251.551 138.454 C 242.786 141.684,240.651 149.976,246.869 156.635 C 254.560 164.869,267.942 157.619,265.244 146.680 C 265.056 145.920,264.969 146.677,264.997 148.828 C 265.152 161.038,250.330 164.040,244.648 152.949 C 242.743 149.230,244.159 142.900,247.266 141.250 C 247.803 140.965,249.121 140.229,250.195 139.614 C 251.879 138.650,252.551 138.498,255.078 138.513 C 256.886 138.524,257.634 138.423,257.031 138.249 C 255.496 137.808,253.057 137.899,251.551 138.454 M259.356 139.551 C 260.956 140.603,263.080 142.723,264.150 144.336 C 264.577 144.980,264.834 145.222,264.720 144.872 C 264.094 142.940,259.710 138.672,258.353 138.672 C 258.169 138.672,258.620 139.067,259.356 139.551 M93.350 141.464 C 93.102 142.399,92.563 144.169,92.152 145.398 C 91.742 146.626,91.430 148.121,91.459 148.718 C 91.511 149.770,91.518 149.773,91.685 148.828 C 91.779 148.291,92.388 146.126,93.037 144.016 C 93.687 141.907,94.124 140.088,94.010 139.973 C 93.895 139.859,93.598 140.530,93.350 141.464 M286.530 144.119 C 289.488 144.393,289.673 144.466,291.937 146.264 C 296.239 149.681,296.662 156.804,292.790 160.632 C 289.328 164.054,281.788 163.970,278.531 160.473 C 278.093 160.003,277.734 159.831,277.734 160.091 C 277.734 162.584,285.542 164.393,289.658 162.854 C 299.715 159.091,296.735 143.531,286.010 143.807 L 283.789 143.865 286.530 144.119 M280.463 144.856 C 276.168 147.114,274.301 155.812,277.392 159.160 C 277.885 159.695,277.827 159.424,276.953 157.125 C 275.045 152.106,277.266 146.278,281.698 144.674 C 282.419 144.413,282.741 144.187,282.416 144.170 C 282.090 144.154,281.211 144.463,280.463 144.856 M103.365 147.897 C 103.020 148.912,102.799 149.804,102.874 149.880 C 102.950 149.955,103.320 149.212,103.696 148.227 C 104.072 147.243,104.293 146.350,104.187 146.244 C 104.081 146.138,103.711 146.882,103.365 147.897 M141.440 149.023 C 141.476 150.358,142.127 151.604,142.154 150.391 C 142.166 149.854,142.005 149.150,141.797 148.828 C 141.484 148.345,141.422 148.379,141.440 149.023 M306.885 150.000 C 307.202 152.188,307.424 152.500,307.416 150.749 C 307.413 150.015,307.234 149.150,307.020 148.828 C 306.747 148.419,306.706 148.772,306.885 150.000 M102.204 153.182 C 101.297 161.864,104.836 170.087,110.810 173.176 C 111.486 173.526,112.099 173.968,112.172 174.159 C 112.245 174.350,112.744 174.639,113.281 174.802 C 113.870 174.980,113.448 174.535,112.216 173.681 C 111.094 172.903,109.995 172.266,109.775 172.266 C 109.555 172.266,109.374 172.134,109.372 171.973 C 109.371 171.812,108.724 171.240,107.935 170.703 C 106.535 169.751,103.973 165.120,103.394 162.500 C 103.276 161.963,102.975 160.732,102.726 159.766 C 102.437 158.646,102.365 156.697,102.527 154.395 C 102.813 150.334,102.589 149.496,102.204 153.182 M142.273 152.539 C 142.269 153.184,142.406 154.150,142.578 154.688 L 142.891 155.664 142.884 154.688 C 142.880 154.150,142.742 153.184,142.578 152.539 L 142.280 151.367 142.273 152.539 M307.596 153.906 C 307.741 154.873,308.014 156.104,308.203 156.641 C 308.926 158.704,309.375 164.482,309.375 171.744 L 309.375 179.301 271.387 179.201 L 233.398 179.102 233.161 176.758 L 232.923 174.414 232.965 176.953 L 233.008 179.492 271.072 179.592 C 293.306 179.650,309.283 179.545,309.489 179.339 C 310.046 178.782,309.822 164.305,309.195 160.352 C 308.355 155.054,307.872 152.662,307.588 152.392 C 307.448 152.258,307.451 152.939,307.596 153.906 M142.457 159.385 C 142.314 159.917,142.213 160.791,142.232 161.328 C 142.256 162.029,142.367 161.872,142.626 160.768 C 143.023 159.077,142.871 157.837,142.457 159.385 M141.068 164.703 C 139.777 168.155,136.565 171.706,133.079 173.535 C 131.544 174.341,130.531 175.000,130.829 175.000 C 134.239 175.000,142.992 165.501,142.087 162.783 C 142.009 162.550,141.551 163.413,141.068 164.703 M115.039 175.391 C 115.469 175.575,116.348 175.718,116.992 175.708 L 118.164 175.689 116.992 175.391 C 116.348 175.227,115.469 175.084,115.039 175.074 L 114.258 175.055 115.039 175.391 M128.354 175.293 C 128.193 175.454,125.835 175.686,123.113 175.809 L 118.164 176.032 122.656 176.072 C 126.434 176.105,132.462 175.192,129.460 175.041 C 129.012 175.018,128.514 175.132,128.354 175.293 M78.320 229.579 C 95.302 229.851,109.675 229.856,109.510 229.590 C 109.410 229.429,100.858 229.336,90.504 229.385 C 80.151 229.433,74.668 229.520,78.320 229.579 M112.137 230.061 C 111.883 230.218,112.686 230.380,113.923 230.420 C 115.159 230.461,116.092 230.424,115.996 230.340 C 115.621 230.010,112.575 229.790,112.137 230.061 M300.609 268.750 C 300.703 308.158,300.837 311.636,302.208 310.498 C 302.837 309.976,302.602 307.172,301.869 306.445 C 301.604 306.183,301.562 306.343,301.740 306.934 C 301.886 307.417,301.862 307.813,301.686 307.813 C 301.511 307.813,301.328 303.902,301.280 299.121 C 301.233 294.341,301.042 276.982,300.856 260.547 L 300.518 230.664 300.609 268.750 M122.754 231.519 C 123.130 231.618,123.745 231.618,124.121 231.519 C 124.497 231.421,124.189 231.341,123.438 231.341 C 122.686 231.341,122.378 231.421,122.754 231.519 M230.360 231.770 C 229.924 232.877,229.995 233.442,230.505 232.932 C 230.740 232.697,230.867 232.179,230.787 231.780 C 230.646 231.080,230.631 231.080,230.360 231.770 M68.373 232.396 C 67.878 233.321,67.855 233.710,68.312 233.428 C 68.657 233.215,69.194 231.641,68.922 231.641 C 68.843 231.641,68.596 231.981,68.373 232.396 M229.784 283.678 C 229.695 329.775,229.738 333.672,230.346 334.948 L 231.004 336.328 239.818 336.238 L 248.633 336.149 239.926 336.036 C 232.074 335.934,231.199 335.856,231.004 335.246 C 230.886 334.875,230.626 334.219,230.428 333.789 C 230.216 333.328,230.029 312.650,229.974 283.398 L 229.880 233.789 229.784 283.678 M67.517 234.863 C 67.437 235.132,67.471 240.361,67.592 246.484 L 67.813 257.617 67.891 245.996 C 67.963 235.240,67.906 233.550,67.517 234.863 M90.137 246.002 C 87.957 246.476,90.364 246.665,97.168 246.552 C 109.993 246.339,116.160 247.304,125.421 250.975 C 132.767 253.887,139.253 259.203,140.279 263.156 C 140.492 263.977,140.996 265.527,141.398 266.602 C 141.800 267.676,142.534 269.873,143.030 271.484 C 143.779 273.914,143.956 274.216,144.071 273.254 C 144.147 272.615,144.018 272.029,143.784 271.952 C 143.551 271.874,143.359 271.383,143.359 270.861 C 143.359 270.338,143.200 269.606,143.005 269.233 C 142.550 268.362,141.406 264.519,141.406 263.859 C 141.406 262.323,137.795 257.663,134.766 255.289 C 133.101 253.985,128.383 251.172,127.860 251.172 C 127.587 251.172,126.260 250.669,124.912 250.053 C 123.564 249.438,122.021 248.812,121.484 248.662 C 120.947 248.511,120.156 248.245,119.727 248.070 C 118.683 247.645,115.650 247.008,112.305 246.512 C 109.655 246.120,91.517 245.702,90.137 246.002 M67.699 263.477 C 67.701 264.766,67.774 265.246,67.861 264.544 C 67.948 263.842,67.946 262.787,67.857 262.200 C 67.768 261.613,67.697 262.188,67.699 263.477 M248.275 266.657 C 247.920 267.583,248.298 267.773,249.033 267.039 C 249.757 266.315,250.240 266.238,250.583 266.792 C 250.725 267.021,250.535 267.079,250.118 266.935 C 249.728 266.801,249.979 267.194,250.683 267.819 C 252.023 269.008,254.688 272.597,254.688 273.212 C 254.688 273.618,255.993 275.641,262.396 285.156 C 264.059 287.627,265.598 289.929,265.815 290.273 C 268.146 293.950,269.616 296.150,271.094 298.175 C 272.061 299.499,273.203 301.128,273.633 301.794 C 276.879 306.824,280.815 312.558,281.901 313.840 C 282.617 314.684,283.203 315.545,283.203 315.753 C 283.203 315.960,283.821 316.884,284.576 317.806 C 285.331 318.727,286.670 320.767,287.552 322.338 C 289.895 326.515,292.611 330.611,293.310 331.024 C 293.645 331.221,294.276 331.775,294.713 332.255 C 295.150 332.734,296.185 333.847,297.012 334.727 L 298.517 336.328 308.829 336.328 C 314.500 336.328,319.141 336.196,319.141 336.035 C 319.141 335.874,314.611 335.792,309.074 335.852 L 299.007 335.962 295.683 332.337 C 292.238 328.580,290.436 326.078,288.290 322.070 C 287.600 320.781,286.613 319.277,286.096 318.729 C 285.579 318.180,285.156 317.601,285.156 317.443 C 285.156 317.284,284.980 316.942,284.764 316.683 C 284.200 316.005,282.089 312.920,278.959 308.203 C 277.463 305.947,276.070 303.914,275.865 303.684 C 275.660 303.455,274.472 301.785,273.225 299.973 C 271.979 298.162,270.374 295.847,269.659 294.828 C 268.944 293.810,268.359 292.871,268.359 292.743 C 268.359 292.614,267.068 290.635,265.489 288.344 C 263.910 286.054,262.160 283.386,261.599 282.415 C 261.038 281.445,260.252 280.300,259.852 279.870 C 258.926 278.876,255.283 272.925,254.353 270.888 C 254.154 270.452,253.533 269.751,252.972 269.330 C 252.412 268.909,251.948 268.299,251.941 267.974 C 251.905 266.261,248.848 265.164,248.275 266.657 M67.669 267.969 C 67.669 268.721,67.749 269.028,67.847 268.652 C 67.946 268.276,67.946 267.661,67.847 267.285 C 67.749 266.909,67.669 267.217,67.669 267.969 M67.480 290.592 C 67.032 319.542,67.094 333.316,67.676 334.112 C 68.068 334.649,68.145 330.305,68.065 312.019 C 67.897 273.172,67.803 269.751,67.480 290.592 M143.945 282.085 C 143.945 288.962,144.099 290.363,144.685 288.835 C 145.144 287.639,144.939 277.084,144.434 275.881 C 144.019 274.895,143.945 275.834,143.945 282.085 M143.609 292.773 C 143.439 293.633,143.137 294.846,142.939 295.468 C 142.479 296.913,142.485 297.266,142.969 297.266 C 143.184 297.266,143.359 296.773,143.359 296.172 C 143.359 295.570,143.547 294.890,143.777 294.661 C 144.006 294.431,144.132 293.561,144.056 292.727 L 143.919 291.211 143.609 292.773 M142.240 298.438 C 141.979 301.977,136.249 310.197,132.519 312.383 C 131.587 312.929,130.908 313.460,131.010 313.563 C 131.327 313.879,135.260 311.076,137.006 309.291 C 139.242 307.005,142.675 300.339,142.467 298.688 C 142.341 297.689,142.299 297.642,142.240 298.438 M298.047 305.409 C 298.047 305.831,298.420 306.940,298.877 307.873 C 299.333 308.807,299.829 309.824,299.979 310.133 C 300.129 310.442,300.448 310.761,300.688 310.841 C 300.929 310.922,300.704 310.113,300.189 309.045 C 299.673 307.977,299.137 306.646,298.997 306.087 C 298.680 304.825,298.047 304.373,298.047 305.409 M126.817 315.084 C 124.116 316.490,124.769 316.612,127.559 315.223 C 128.837 314.586,129.619 314.073,129.297 314.082 C 128.975 314.091,127.859 314.542,126.817 315.084 M120.898 317.578 C 120.145 317.902,120.148 317.915,120.973 317.941 C 121.444 317.956,121.938 317.793,122.070 317.578 C 122.356 317.116,121.974 317.116,120.898 317.578 M101.367 319.540 L 89.648 319.744 101.855 319.833 C 108.569 319.882,114.063 319.853,114.063 319.768 C 114.063 319.380,112.335 319.349,101.367 319.540 M152.703 320.172 C 151.802 321.152,151.798 321.179,152.615 320.754 C 153.521 320.283,154.097 319.592,153.817 319.311 C 153.724 319.219,153.223 319.606,152.703 320.172 M146.552 325.616 C 145.622 326.351,145.053 326.953,145.288 326.953 C 145.523 326.953,146.371 326.343,147.174 325.597 C 149.023 323.877,148.739 323.886,146.552 325.616 M139.090 330.133 C 137.898 330.761,137.299 331.249,137.723 331.248 C 138.137 331.247,139.268 330.721,140.234 330.078 C 142.413 328.630,141.898 328.655,139.090 330.133 M185.786 332.491 C 185.927 333.420,186.321 334.663,186.660 335.254 L 187.278 336.328 196.080 336.245 L 204.883 336.162 196.094 335.933 C 186.355 335.680,187.109 335.761,187.109 334.961 C 187.109 334.639,186.934 334.375,186.719 334.375 C 186.504 334.375,186.328 333.682,186.328 332.836 C 186.328 331.989,186.148 331.185,185.928 331.049 C 185.665 330.886,185.616 331.378,185.786 332.491 M132.031 333.203 C 131.510 333.540,131.510 333.582,132.031 333.582 C 132.354 333.582,132.881 333.411,133.203 333.203 C 133.724 332.867,133.724 332.824,133.203 332.824 C 132.881 332.824,132.354 332.995,132.031 333.203 M129.297 333.984 C 128.812 334.298,128.845 334.363,129.492 334.363 C 129.922 334.363,130.537 334.193,130.859 333.984 C 131.345 333.671,131.311 333.606,130.664 333.606 C 130.234 333.606,129.619 333.776,129.297 333.984 M125.781 334.786 C 125.361 335.072,125.638 335.111,126.758 334.924 C 128.696 334.599,129.007 334.373,127.507 334.381 C 126.880 334.384,126.104 334.567,125.781 334.786 M68.817 335.547 C 69.029 336.190,119.338 336.663,121.030 336.038 C 121.470 335.875,110.135 335.794,95.841 335.858 C 74.992 335.951,69.729 335.874,69.237 335.467 C 68.724 335.044,68.655 335.057,68.817 335.547 M122.511 335.465 C 122.406 335.635,122.923 335.704,123.660 335.618 C 124.397 335.532,125.000 335.393,125.000 335.309 C 125.000 335.015,122.700 335.159,122.511 335.465 " stroke="none" fill="#fb9826" fill-rule="evenodd"></path><path id="path3" d="M189.844 64.096 C 187.753 64.320,187.774 64.327,190.625 64.367 C 192.236 64.390,194.258 64.261,195.117 64.081 C 197.013 63.685,193.611 63.694,189.844 64.096 M183.594 64.699 C 177.628 65.554,171.701 66.753,171.994 67.046 C 172.089 67.141,173.464 66.946,175.048 66.613 C 181.008 65.359,181.736 65.234,183.135 65.228 C 183.925 65.225,184.834 65.052,185.156 64.844 C 185.805 64.424,185.628 64.408,183.594 64.699 M168.750 67.578 L 167.773 67.891 168.750 67.902 C 169.287 67.909,170.078 67.763,170.508 67.578 L 171.289 67.242 170.508 67.254 C 170.078 67.260,169.287 67.406,168.750 67.578 M164.453 69.001 C 163.057 69.547,161.123 70.227,160.156 70.512 C 157.769 71.217,151.122 74.151,150.360 74.836 C 150.021 75.141,149.600 75.391,149.425 75.391 C 149.250 75.391,147.418 76.507,145.354 77.872 C 143.290 79.237,139.756 81.536,137.500 82.981 C 133.521 85.529,128.267 89.155,127.630 89.792 C 127.457 89.964,128.421 91.279,129.771 92.713 C 131.122 94.148,132.421 95.539,132.659 95.805 C 132.897 96.071,134.655 97.794,136.565 99.634 C 138.476 101.473,140.764 103.758,141.651 104.712 C 142.537 105.665,144.379 107.500,145.743 108.789 C 149.498 112.335,143.699 106.228,135.059 97.537 C 127.077 89.507,127.372 90.167,130.749 87.891 C 132.184 86.924,134.861 85.113,136.698 83.867 C 138.536 82.621,140.742 81.234,141.602 80.785 C 142.461 80.336,143.604 79.634,144.141 79.225 C 145.941 77.855,149.196 75.781,149.547 75.781 C 149.738 75.781,150.314 75.456,150.826 75.058 C 151.822 74.286,157.257 71.878,160.156 70.924 C 163.699 69.759,167.227 68.450,167.464 68.213 C 167.911 67.766,167.016 68.000,164.453 69.001 M233.295 81.348 L 233.387 94.336 233.496 81.543 C 233.612 67.843,233.586 67.997,235.547 69.531 C 236.084 69.951,236.713 70.299,236.944 70.304 C 237.176 70.309,238.447 70.752,239.769 71.289 C 241.090 71.826,242.395 72.259,242.668 72.251 C 242.941 72.243,241.615 71.630,239.722 70.889 C 237.829 70.148,235.901 69.276,235.436 68.951 C 233.154 67.352,233.194 67.120,233.295 81.348 M243.529 72.614 C 243.676 72.852,244.093 73.055,244.457 73.066 C 244.820 73.076,245.684 73.384,246.378 73.749 C 247.071 74.115,249.268 75.270,251.260 76.317 C 253.253 77.363,255.938 78.963,257.227 79.872 C 258.516 80.781,260.206 81.823,260.983 82.188 C 261.760 82.554,263.606 83.820,265.085 85.003 L 267.773 87.153 265.449 85.002 C 264.171 83.819,262.501 82.535,261.738 82.148 C 260.976 81.762,259.121 80.642,257.617 79.660 C 251.768 75.841,242.730 71.321,243.529 72.614 M203.885 102.376 C 203.873 116.001,203.829 135.059,203.787 144.727 C 203.745 154.395,203.859 163.798,204.039 165.622 L 204.367 168.940 203.439 167.938 C 202.928 167.387,201.814 166.072,200.962 165.015 C 198.982 162.557,197.315 160.670,194.095 157.243 C 192.673 155.730,190.827 153.756,189.993 152.857 C 185.347 147.846,180.802 143.224,180.920 143.630 C 180.994 143.886,182.813 145.912,184.961 148.133 C 193.341 156.796,196.813 160.585,200.195 164.757 C 202.129 167.142,203.854 169.056,204.029 169.011 C 204.357 168.926,204.417 78.115,204.089 77.787 C 203.989 77.687,203.897 88.752,203.885 102.376 M173.828 80.462 C 175.869 80.629,177.979 80.887,178.516 81.035 C 179.428 81.286,179.441 81.271,178.711 80.804 C 178.235 80.500,176.405 80.276,174.023 80.231 L 170.117 80.158 173.828 80.462 M166.523 81.017 C 165.021 81.564,164.233 82.262,165.625 81.813 C 166.162 81.640,167.393 81.278,168.359 81.010 C 169.804 80.608,169.908 80.525,168.945 80.542 C 168.301 80.553,167.211 80.767,166.523 81.017 M180.273 81.641 C 181.349 82.103,181.731 82.103,181.445 81.641 C 181.313 81.426,180.819 81.262,180.348 81.277 C 179.523 81.304,179.520 81.317,180.273 81.641 M161.715 83.343 C 159.588 84.905,156.644 88.121,155.911 89.682 C 155.618 90.308,155.222 91.126,155.032 91.499 C 153.675 94.166,152.894 101.541,153.815 102.991 C 153.972 103.239,154.039 101.860,153.964 99.926 C 153.690 92.942,156.593 87.209,162.268 83.528 C 163.536 82.705,164.327 82.036,164.025 82.041 C 163.724 82.046,162.684 82.632,161.715 83.343 M183.442 83.058 C 189.124 86.900,192.304 92.259,192.979 99.130 L 193.314 102.539 193.172 99.023 C 193.005 94.906,192.308 92.614,190.261 89.448 C 188.428 86.611,183.499 82.031,182.280 82.031 C 182.083 82.031,182.606 82.493,183.442 83.058 M268.149 87.983 C 268.570 88.254,269.376 88.916,269.940 89.453 C 271.788 91.214,272.490 91.599,271.094 90.086 C 270.342 89.272,269.199 88.354,268.555 88.047 C 267.910 87.740,267.728 87.711,268.149 87.983 M272.693 91.696 C 272.713 91.859,273.545 92.695,274.542 93.555 L 276.354 95.117 275.189 93.708 C 273.999 92.269,272.627 91.163,272.693 91.696 M233.320 96.484 C 233.320 97.666,233.393 98.149,233.483 97.559 C 233.572 96.968,233.572 96.001,233.483 95.410 C 233.393 94.819,233.320 95.303,233.320 96.484 M277.621 96.791 C 278.435 97.605,279.805 99.129,280.664 100.179 C 281.523 101.229,282.761 102.717,283.414 103.485 C 284.068 104.254,284.908 105.322,285.281 105.859 C 287.584 109.172,290.648 113.734,291.994 115.857 C 292.854 117.214,293.790 118.552,294.074 118.830 C 294.730 119.475,291.539 114.131,290.643 113.086 C 290.275 112.656,289.513 111.496,288.949 110.507 C 288.386 109.518,287.307 107.936,286.551 106.991 C 285.796 106.047,284.513 104.420,283.702 103.377 C 281.089 100.019,276.893 95.313,276.511 95.313 C 276.307 95.313,276.807 95.978,277.621 96.791 M247.461 98.387 C 241.954 100.354,238.223 103.826,238.298 106.914 C 238.308 107.301,238.551 106.958,238.839 106.152 C 240.856 100.499,249.303 96.631,255.273 98.626 C 256.031 98.879,256.032 98.873,255.304 98.410 C 254.050 97.613,249.663 97.600,247.461 98.387 M233.294 100.000 C 233.294 100.752,233.374 101.060,233.472 100.684 C 233.571 100.308,233.571 99.692,233.472 99.316 C 233.374 98.940,233.294 99.248,233.294 100.000 M256.781 99.303 C 257.181 99.579,258.285 100.308,259.235 100.924 C 260.185 101.539,261.696 102.982,262.593 104.131 C 263.490 105.280,264.300 106.142,264.394 106.049 C 264.848 105.594,260.051 100.854,258.147 99.875 C 256.996 99.284,256.382 99.027,256.781 99.303 M233.355 106.836 C 233.356 109.629,233.418 110.720,233.493 109.261 C 233.569 107.802,233.568 105.517,233.492 104.183 C 233.416 102.849,233.354 104.043,233.355 106.836 M192.432 104.273 C 191.267 111.557,185.058 118.174,177.769 119.902 C 176.606 120.177,176.540 120.241,177.382 120.273 C 180.675 120.401,186.529 116.529,189.462 112.285 C 191.252 109.694,193.738 102.734,192.873 102.734 C 192.766 102.734,192.567 103.427,192.432 104.273 M154.353 104.688 C 154.355 105.225,154.593 106.279,154.883 107.031 C 155.571 108.819,155.576 108.127,154.892 105.664 C 154.578 104.534,154.351 104.122,154.353 104.688 M264.688 107.682 C 265.047 109.179,265.234 109.320,265.234 108.096 C 265.234 107.536,265.052 106.964,264.828 106.826 C 264.562 106.662,264.513 106.956,264.688 107.682 M237.750 108.676 C 237.618 109.168,237.531 110.273,237.557 111.133 C 237.594 112.422,237.655 112.285,237.903 110.352 C 238.220 107.888,238.154 107.169,237.750 108.676 M265.307 111.051 C 265.267 112.080,264.879 113.618,264.445 114.469 C 263.456 116.408,263.705 116.491,264.824 114.595 C 265.463 113.512,265.628 112.698,265.520 111.177 L 265.379 109.180 265.307 111.051 M156.258 110.436 C 156.262 110.604,157.010 111.544,157.918 112.524 C 159.720 114.467,159.488 113.961,157.500 111.608 C 156.812 110.794,156.254 110.267,156.258 110.436 M106.652 112.543 C 105.976 113.640,105.502 114.616,105.597 114.712 C 105.693 114.807,106.294 113.979,106.934 112.870 L 108.098 110.855 113.717 116.340 C 124.066 126.443,126.033 128.296,128.906 130.650 C 130.475 131.935,136.180 137.147,137.377 138.388 C 155.693 157.380,175.114 176.445,177.578 177.851 C 178.533 178.397,178.172 178.854,176.660 179.012 C 175.318 179.153,175.351 179.171,177.051 179.231 C 179.581 179.321,179.460 179.076,175.098 175.299 C 171.506 172.189,145.153 146.191,139.158 139.844 C 137.636 138.232,135.045 135.684,133.399 134.180 C 131.754 132.676,130.114 131.163,129.755 130.817 C 129.395 130.472,127.871 129.135,126.367 127.847 C 123.163 125.103,121.269 123.312,113.814 115.979 C 107.389 109.658,108.190 110.043,106.652 112.543 M148.438 111.133 C 148.438 111.307,150.529 113.488,153.084 115.979 C 168.527 131.030,168.604 131.103,164.844 127.175 C 162.803 125.043,160.513 122.730,159.755 122.034 C 158.997 121.338,156.140 118.529,153.407 115.792 C 150.674 113.055,148.438 110.958,148.438 111.133 M238.080 113.996 C 238.558 117.197,242.854 122.266,245.089 122.266 C 245.296 122.266,244.677 121.766,243.714 121.155 C 241.272 119.606,239.266 117.125,238.519 114.729 C 238.125 113.464,237.959 113.187,238.080 113.996 M159.766 114.999 C 159.766 115.288,163.885 117.969,164.330 117.969 C 164.612 117.969,163.495 117.162,160.840 115.448 C 160.249 115.066,159.766 114.864,159.766 114.999 M104.001 117.490 C 103.300 118.681,102.798 119.725,102.884 119.811 C 102.971 119.898,103.606 118.981,104.297 117.773 C 104.988 116.566,105.490 115.522,105.413 115.452 C 105.336 115.383,104.701 116.300,104.001 117.490 M261.372 118.824 C 257.887 122.553,253.476 123.937,248.438 122.881 C 245.582 122.282,244.854 122.371,247.131 123.040 C 252.986 124.760,258.328 123.095,262.503 118.249 C 264.506 115.923,263.701 116.333,261.372 118.824 M233.203 147.266 C 233.203 163.665,233.309 176.978,233.438 176.849 C 233.716 176.570,233.674 117.919,233.395 117.640 C 233.289 117.534,233.203 130.866,233.203 147.266 M165.052 118.380 C 165.352 118.866,169.578 120.367,170.073 120.163 C 170.312 120.064,170.244 119.966,169.922 119.943 C 169.600 119.921,168.328 119.489,167.095 118.982 C 165.863 118.475,164.943 118.204,165.052 118.380 M294.544 119.801 C 294.537 120.057,294.724 120.385,294.959 120.531 C 295.194 120.676,295.901 121.942,296.530 123.344 C 297.159 124.746,297.750 125.818,297.842 125.726 C 298.053 125.515,295.975 121.168,295.161 120.117 C 294.829 119.687,294.551 119.545,294.544 119.801 M100.287 124.687 C 98.177 129.024,97.755 130.061,95.387 136.719 C 94.009 140.594,93.567 142.072,93.871 141.790 C 93.991 141.678,95.086 138.778,96.304 135.344 C 97.522 131.911,99.476 127.192,100.647 124.858 C 101.818 122.524,102.698 120.537,102.604 120.443 C 102.510 120.349,101.467 122.259,100.287 124.687 M171.973 120.597 C 172.778 120.681,174.097 120.681,174.902 120.597 C 175.708 120.513,175.049 120.444,173.438 120.444 C 171.826 120.444,171.167 120.513,171.973 120.597 M275.000 123.940 C 273.010 124.942,273.800 128.516,276.012 128.516 C 278.587 128.516,279.762 127.033,278.746 125.067 C 277.885 123.403,276.748 123.061,275.000 123.940 M278.308 125.232 C 279.420 126.928,278.248 128.034,275.603 127.787 C 273.721 127.610,273.629 124.790,275.488 124.292 C 277.056 123.872,277.518 124.026,278.308 125.232 M299.833 131.224 C 299.976 131.961,300.424 133.153,300.828 133.872 C 301.232 134.591,301.563 135.428,301.563 135.731 C 301.563 136.034,301.727 136.384,301.928 136.508 C 302.397 136.797,301.920 135.269,300.595 132.227 C 299.850 130.519,299.644 130.247,299.833 131.224 M171.784 134.591 C 173.753 136.428,176.538 139.197,177.973 140.743 C 179.407 142.289,180.323 143.165,180.008 142.688 C 178.808 140.872,169.128 131.250,168.501 131.250 C 168.338 131.250,169.815 132.753,171.784 134.591 M190.430 133.956 C 189.355 134.327,188.125 134.772,187.695 134.946 C 187.266 135.120,185.859 135.673,184.570 136.174 C 177.641 138.868,177.169 139.940,183.752 138.034 C 190.802 135.992,194.439 134.272,193.271 133.531 C 192.673 133.151,192.838 133.126,190.430 133.956 M118.555 135.938 C 117.985 136.182,118.355 136.284,119.922 136.313 C 129.174 136.487,135.212 138.936,139.123 144.101 C 141.339 147.028,141.700 146.940,139.552 143.998 C 137.177 140.744,137.050 140.634,133.806 139.006 C 130.595 137.394,129.080 136.963,124.414 136.331 C 122.910 136.127,121.152 135.880,120.508 135.782 C 119.863 135.684,118.984 135.754,118.555 135.938 M114.844 136.739 C 114.424 137.025,114.701 137.064,115.820 136.877 C 117.758 136.552,118.070 136.326,116.569 136.334 C 115.942 136.337,115.166 136.520,114.844 136.739 M111.344 138.200 C 108.447 139.882,102.908 146.007,103.630 146.729 C 103.724 146.823,104.009 146.398,104.263 145.785 C 104.941 144.147,110.047 139.295,112.305 138.143 C 113.379 137.594,113.994 137.155,113.672 137.167 C 113.350 137.178,112.302 137.643,111.344 138.200 M302.344 137.538 C 302.344 137.865,302.602 138.473,302.917 138.890 C 303.233 139.307,303.517 140.000,303.549 140.430 C 303.586 140.941,303.661 141.008,303.765 140.625 C 303.852 140.303,303.568 139.343,303.134 138.492 C 302.699 137.641,302.344 137.211,302.344 137.538 M254.102 137.761 C 259.783 138.461,263.845 141.541,265.091 146.094 C 265.370 147.114,265.583 147.478,265.599 146.960 C 265.725 142.695,259.320 137.350,254.332 137.559 C 253.047 137.612,253.027 137.629,254.102 137.761 M250.879 138.293 C 249.526 138.837,249.838 139.077,251.270 138.594 C 251.968 138.358,252.612 138.103,252.702 138.028 C 253.020 137.760,251.744 137.946,250.879 138.293 M247.266 140.389 C 243.936 142.804,241.715 149.009,243.221 151.690 C 243.426 152.054,243.555 150.973,243.555 148.896 C 243.555 144.657,244.658 142.433,247.685 140.570 C 248.744 139.919,249.609 139.313,249.609 139.224 C 249.609 138.847,248.917 139.191,247.266 140.389 M303.922 141.617 C 303.902 142.141,305.267 146.022,305.581 146.337 C 305.911 146.666,305.169 144.045,304.490 142.484 C 304.186 141.784,303.930 141.393,303.922 141.617 M93.093 143.763 C 92.839 144.723,92.526 145.859,92.399 146.289 C 92.271 146.719,92.530 146.288,92.975 145.332 C 93.420 144.377,93.732 143.240,93.669 142.807 C 93.598 142.314,93.382 142.673,93.093 143.763 M282.813 143.760 C 282.210 143.960,282.833 144.000,284.437 143.867 C 290.164 143.389,294.406 146.353,295.727 151.758 C 296.008 152.908,296.015 152.910,296.054 151.895 C 296.091 150.935,295.139 148.923,293.750 147.027 C 291.561 144.040,286.519 142.534,282.813 143.760 M279.291 145.182 C 278.064 146.214,275.977 149.154,276.265 149.442 C 276.348 149.525,277.020 148.686,277.758 147.579 C 278.497 146.472,279.714 145.245,280.463 144.853 C 281.211 144.461,281.532 144.141,281.176 144.141 C 280.820 144.141,279.972 144.609,279.291 145.182 M141.450 147.949 C 141.892 149.275,142.188 149.579,142.188 148.707 C 142.188 148.426,141.926 147.855,141.607 147.438 C 141.076 146.744,141.062 146.788,141.450 147.949 M305.893 147.461 C 305.881 147.891,306.042 148.506,306.250 148.828 C 306.752 149.605,306.752 148.629,306.250 147.461 L 305.914 146.680 305.893 147.461 M91.842 148.075 C 91.817 148.627,91.513 149.911,91.167 150.928 C 90.821 151.945,90.617 152.856,90.714 152.953 C 91.031 153.271,92.276 148.592,92.079 147.821 C 91.932 147.244,91.877 147.303,91.842 148.075 M102.583 149.072 C 102.237 150.089,101.975 151.636,102.001 152.511 C 102.045 153.999,102.069 153.963,102.366 151.948 C 102.540 150.764,102.875 149.290,103.110 148.672 C 103.345 148.054,103.464 147.475,103.375 147.386 C 103.286 147.296,102.929 148.055,102.583 149.072 M265.731 150.000 C 265.731 150.967,265.808 151.362,265.901 150.879 C 265.994 150.396,265.994 149.604,265.901 149.121 C 265.808 148.638,265.731 149.033,265.731 150.000 M306.680 150.196 C 306.627 151.253,308.124 159.039,308.438 159.335 C 308.743 159.622,308.493 157.990,307.487 153.125 C 307.065 151.084,306.702 149.766,306.680 150.196 M142.261 150.586 C 142.271 151.016,142.414 151.895,142.578 152.539 L 142.876 153.711 142.895 152.539 C 142.905 151.895,142.763 151.016,142.578 150.586 L 142.242 149.805 142.261 150.586 M275.651 150.260 C 275.292 150.619,275.321 155.770,275.684 155.994 C 275.845 156.094,275.977 154.786,275.977 153.088 C 275.977 151.389,275.962 150.000,275.944 150.000 C 275.926 150.000,275.794 150.117,275.651 150.260 M264.537 153.795 C 264.074 154.800,263.776 155.703,263.874 155.801 C 263.973 155.900,264.421 155.147,264.872 154.129 C 265.322 153.112,265.620 152.209,265.534 152.123 C 265.448 152.037,264.999 152.789,264.537 153.795 M243.750 152.975 C 243.750 154.261,248.487 159.059,250.648 159.962 C 252.095 160.566,257.617 160.787,257.949 160.254 C 258.049 160.093,256.894 160.020,255.383 160.093 C 250.936 160.306,246.790 157.896,244.721 153.895 C 244.159 152.809,243.750 152.421,243.750 152.975 M295.775 155.133 C 295.678 158.098,293.942 160.685,291.030 162.207 C 289.899 162.798,289.178 163.281,289.428 163.281 C 292.503 163.281,296.242 158.538,295.990 154.958 L 295.848 152.930 295.775 155.133 M90.325 154.688 C 90.325 155.439,90.405 155.747,90.504 155.371 C 90.602 154.995,90.602 154.380,90.504 154.004 C 90.405 153.628,90.325 153.936,90.325 154.688 M101.766 157.583 C 101.853 159.498,102.126 161.256,102.373 161.489 C 102.708 161.806,102.748 161.669,102.529 160.949 C 102.368 160.418,102.095 158.660,101.922 157.043 L 101.607 154.102 101.766 157.583 M143.100 157.031 C 143.100 158.643,143.169 159.302,143.253 158.496 C 143.338 157.690,143.338 156.372,143.253 155.566 C 143.169 154.761,143.100 155.420,143.100 157.031 M89.709 157.124 C 89.372 158.465,88.679 164.801,88.675 166.569 C 88.669 169.434,89.117 167.666,89.281 164.174 C 89.371 162.261,89.624 159.754,89.842 158.605 C 90.238 156.513,90.140 155.409,89.709 157.124 M261.763 157.637 C 260.821 158.378,260.252 158.984,260.500 158.984 C 260.747 158.984,261.606 158.374,262.408 157.628 C 264.268 155.899,263.969 155.903,261.763 157.637 M276.953 159.322 C 276.953 160.046,278.662 161.777,280.099 162.511 C 282.431 163.700,282.472 163.415,280.160 162.089 C 278.992 161.419,277.934 160.486,277.728 159.944 C 277.368 158.997,276.953 158.664,276.953 159.322 M308.892 164.258 C 309.002 166.836,309.156 169.019,309.234 169.108 C 309.494 169.408,309.310 163.501,308.999 161.523 C 308.805 160.295,308.766 161.310,308.892 164.258 M142.631 160.742 C 142.596 161.172,142.470 161.963,142.351 162.500 C 142.163 163.343,142.194 163.382,142.576 162.783 C 142.820 162.402,142.946 161.611,142.857 161.025 C 142.752 160.332,142.673 160.233,142.631 160.742 M102.761 162.695 C 102.734 163.508,104.879 168.359,105.265 168.359 C 105.386 168.359,105.101 167.612,104.631 166.699 C 104.162 165.786,103.555 164.336,103.282 163.477 C 103.010 162.617,102.775 162.266,102.761 162.695 M282.947 163.764 C 283.195 163.921,284.365 164.051,285.547 164.051 C 286.729 164.051,287.897 163.921,288.144 163.764 C 288.392 163.606,287.222 163.477,285.545 163.477 C 283.868 163.477,282.699 163.606,282.947 163.764 M141.123 165.634 C 140.671 166.703,140.384 167.578,140.485 167.578 C 140.749 167.578,142.283 164.028,142.099 163.843 C 142.014 163.759,141.575 164.564,141.123 165.634 M138.169 170.111 C 133.455 175.486,122.023 177.958,114.502 175.230 C 112.536 174.516,112.381 174.492,112.654 174.933 C 113.671 176.579,126.758 176.940,130.859 175.436 C 134.426 174.127,137.463 171.883,139.512 169.043 C 140.711 167.381,140.221 167.772,138.169 170.111 M88.362 173.113 C 88.317 175.834,88.388 178.339,88.518 178.679 C 88.733 179.238,92.852 179.288,131.780 179.202 L 174.805 179.107 131.836 178.909 L 88.867 178.711 88.655 173.438 L 88.442 168.164 88.362 173.113 M105.469 169.155 C 105.469 169.541,109.345 172.808,110.547 173.435 C 111.084 173.716,111.653 174.138,111.810 174.375 C 112.010 174.674,112.099 174.659,112.103 174.324 C 112.107 174.060,111.450 173.501,110.645 173.083 C 109.839 172.664,108.345 171.546,107.324 170.598 C 106.304 169.650,105.469 169.001,105.469 169.155 M309.109 174.219 C 309.109 175.615,309.180 176.187,309.267 175.488 C 309.354 174.790,309.354 173.647,309.267 172.949 C 309.180 172.251,309.109 172.822,309.109 174.219 M233.459 179.004 C 233.558 179.165,250.680 179.297,271.507 179.297 C 292.335 179.297,309.375 179.165,309.375 179.004 C 309.375 178.843,292.253 178.711,271.326 178.711 C 250.400 178.711,233.359 178.843,233.459 179.004 M301.178 306.934 C 301.175 307.417,301.348 307.813,301.563 307.813 C 302.052 307.813,302.052 307.398,301.563 306.641 C 301.256 306.167,301.183 306.223,301.178 306.934 " stroke="none" fill="#ff0000" fill-rule="evenodd"></path></g></svg>